<ttFont>
          <CharString index="0">
            -104 callgsubr
            -98 -39 callgsubr
            -47 -5 -178 -9 -89 vhcurveto
            6 57 98 1 32 -85 callsubr
            return
          </CharString>
          <CharString index="1">
            -15 callgsubr
            1 22 23 1 -107 callsubr
            return
          </CharString>
          <CharString index="2">
            -20 hstem
            -107 callgsubr
            return
          </CharString>
          <CharString index="3">
            -43 callsubr
            -179 30 -163 215 216 30 163 179 182 -56 146 -190 hvcurveto
            -89 callgsubr
            return
          </CharString>
          <CharString index="4">
            -88 callgsubr
            -83 callsubr
            return
          </CharString>
          <CharString index="5">
            26 -8 21 -37 -48 -10 -28 -28 -24 8 -22 37 return
          </CharString>
          <CharString index="6">
            rmoveto
            -89 callsubr
            150 hmoveto
            -93 callsubr
            endchar
          </CharString>
          <CharString index="7">
            rmoveto
            -13 -18 -3 -6 -15 hvcurveto
            -35 -78 -38 -67 -51 -85 -26 -43 rcurveline
            -12 0 -6 5 -13 vhcurveto
            1 16 92 2 21 hhcurveto
            44 hlineto
            -1 -29 -3 -29 -3 -27 rrcurveto
            -2 22 4 0 6 hhcurveto
            16 19 2 7 16 hvcurveto
            -4 12 -3 29 -2 34 rrcurveto
            9 9 -2 -1 10 hvcurveto
            4 13 3 10 17 vvcurveto
            12 -2 7 -4 12 vhcurveto
            -6 -2 -11 -2 -14 -2 rrcurveto
            -1 22 0 21 20 vvcurveto
            61 0 56 9 68 vhcurveto
            3 -34 -2 0 -19 hhcurveto
            -116 -257 rmoveto
            27 59 40 81 31 52 rrcurveto
            2 -45 1 -22 -72 vvcurveto
            -17 0 -16 -1 -19 vhcurveto
            -1 -16 -14 0 -70 hhcurveto
            return
          </CharString>
          <CharString index="8">
            rmoveto
            -72 callgsubr
            11 -59 7 -81 -82 -95 callgsubr
            return
          </CharString>
          <CharString index="9">
            -23 callgsubr
            234 -20 hstemhm
            hintmask 01011000
            336 -99 callgsubr
            hintmask 10101000
            -92 callsubr
            return
          </CharString>
          <CharString index="10">
            -19 callsubr
            204 -20 -106 callgsubr
            return
          </CharString>
          <CharString index="11">
            rmoveto
            111 -34 91 -113 -112 -35 -91 -111 -110 35 -92 112 113 34 92 110 vhcurveto
            -224 hmoveto
            89 21 60 56 56 22 -60 -89 -89 -22 -60 -56 -56 -21 60 89 vhcurveto
            return
          </CharString>
          <CharString index="12">
            -68 181 -101 298 -21 162 rrcurveto
            7 -20 -20 3 -36 hhcurveto
            -36 -20 -3 -7 -20 hvcurveto
            -21 -162 -101 -298 -68 -181 rrcurveto
            return
          </CharString>
          <CharString index="13">
            173 256 -99 callsubr
            return
          </CharString>
          <CharString index="14">
            -102 callsubr
            43 15 26 callsubr
            return
          </CharString>
          <CharString index="15">
            -61 callgsubr
            -65 callsubr
            -27 -1 -32 -22 vvcurveto
            -96 32 -48 79 50 43 21 39 48 vhcurveto
            return
          </CharString>
          <CharString index="16">
            rmoveto
            8 9 7 9 5 19 -60 51 -27 18 -47 48 -47 -48 -27 -18 -60 -51 4 -19 8 -9 8 -9 41 23 11 7 62 33 62 -33 10 -7 42 -23 rrcurveto
            endchar
          </CharString>
          <CharString index="17">
            rmoveto
            -47 -28 -51 -28 -34 -14 5 -25 16 -21 15 -17 11 11 30 22 27 18 rrcurveto
            3 -35 64 callsubr
            -55 -2 -74 -8 -60 vhcurveto
            -2 22 4 0 6 hhcurveto
            16 21 3 6 14 hvcurveto
            -8 26 -4 102 72 vvcurveto
            60 0 61 9 66 vhcurveto
            2 -4 -15 2 -26 hhcurveto
            endchar
          </CharString>
          <CharString index="18">
            -102 callsubr
            42 16 26 callsubr
            return
          </CharString>
          <CharString index="19">
            hhcurveto
            28 84 -1 66 callsubr
            -81 callgsubr
            -8 -27 -109 -6 -37 hhcurveto
            return
          </CharString>
          <CharString index="20">
            -40 callsubr
            -51 -51 callgsubr
            -40 -75 callgsubr
            65 -131 78 -208 33 -119 rrcurveto
            return
          </CharString>
          <CharString index="21">
            -102 callgsubr
            endchar
          </CharString>
          <CharString index="22">
            -4 callgsubr
            -84 53 callsubr
            return
          </CharString>
          <CharString index="23">
            -20 hstem
            356 -96 callgsubr
            return
          </CharString>
          <CharString index="24">
            4 63 rmoveto
            16 -30 -37 8 -35 hhcurveto
            -36 callgsubr
            43 50 28 31 40 hvcurveto
            3 -48 rlineto
            return
          </CharString>
          <CharString index="25">
            -7 -45 callgsubr
            12 -18 callgsubr
            15 -5 16 vhcurveto
            return
          </CharString>
          <CharString index="26">
            hhcurveto
            43 73 31 callgsubr
            1 13 0 9 7 vvcurveto
            21 -2 17 -3 19 vhcurveto
            -6 -27 -89 -5 -56 hhcurveto
            return
          </CharString>
          <CharString index="27">
            32 -11 28 -46 -60 -13 -35 -37 -30 11 -28 46 53 20 33 37 vhcurveto
            return
          </CharString>
          <CharString index="28">
            rmoveto
            8 9 7 9 5 19 -75 51 -33 18 -56 48 -26 -22 -13 -17 -1 -40 119 -47 7 -4 58 -24 rrcurveto
            endchar
          </CharString>
          <CharString index="29">
            -71 callsubr
            -61 -51 callgsubr
            -70 -75 callgsubr
            return
          </CharString>
          <CharString index="30">
            -421 vmoveto
            -76 callgsubr
            return
          </CharString>
          <CharString index="31">
            42 callgsubr
            -73 -92 0 9 -69 -14 callgsubr
            return
          </CharString>
          <CharString index="32">
            -70 callsubr
            -35 -34 2 3 -26 hvcurveto
            return
          </CharString>
          <CharString index="33">
            -54 callgsubr
            -36 -18 -59 callgsubr
            return
          </CharString>
          <CharString index="34">
            233 478 rmoveto
            -145 -43 -51 callsubr
            return
          </CharString>
          <CharString index="35">
            19 callgsubr
            216 -20 hstem
            546 277 rmoveto
            107 1 160 13 103 vhcurveto
            1 -14 -9 65 callgsubr
            -30 -15 -59 callgsubr
            16 -90 1 -121 23 callsubr
            -133 -19 -84 -131 -134 -21 84 133 107 1 161 -65 callgsubr
            -120 23 callsubr
            -181 27 -111 195 195 26 111 181 vhcurveto
            return
          </CharString>
          <CharString index="36">
            rrcurveto
            10 -18 -30 7 -30 hhcurveto
            -9 -9 -1 -1 -9 hvcurveto
            -6 -99 return
          </CharString>
          <CharString index="37">
            rmoveto
            63 20 -51 -44 -15 -3 -13 -1 -9 hvcurveto
            -8 -25 -32 -2 -31 hhcurveto
            return
          </CharString>
          <CharString index="38">
            16 3 -58 callgsubr
            return
          </CharString>
          <CharString index="39">
            rmoveto
            -77 31 -57 29 -78 41 -20 10 -51 26 -39 22 39 22 51 25 20 11 78 41 57 29 77 31 -3 17 -5 12 -11 22 -8 15 -5 7 -6 7 -20 -18 -104 -63 -31 -16 rrcurveto
            -65 -35 -81 -42 -65 -25 rrcurveto
            -5 -11 -2 -21 -8 vvcurveto
            -8 2 -22 5 -10 vhcurveto
            65 -25 81 -42 65 -35 31 -16 104 -63 20 -18 6 7 5 7 8 15 11 22 5 12 3 17 rrcurveto
            return
          </CharString>
          <CharString index="40">
            vvcurveto
            -96 -3 -125 -9 callgsubr
            return
          </CharString>
          <CharString index="41">
            -56 callsubr
            -1 -59 70 -100 hhcurveto
            return
          </CharString>
          <CharString index="42">
            2 -18 -16 1 -13 hhcurveto
            -25 -19 -3 -6 -15 hvcurveto
            11 -58 7 -82 -108 return
          </CharString>
          <CharString index="43">
            410 443 -26 callsubr
            -23 -7 -96 -6 -43 -1 2 45 3 46 6 45 rrcurveto
            -74 callsubr
            7 -40 4 -41 3 -47 rrcurveto
            -53 -56 3 6 -45 -50 callsubr
            22 6 94 6 44 2 rrcurveto
            1 -43 0 -47 -55 vvcurveto
            return
          </CharString>
          <CharString index="44">
            rmoveto
            -7 -9 -6 -8 -3 -21 60 -37 40 -25 43 -41 45 45 40 20 65 37 -3 21 -6 9 -6 9 -43 -11 -46 -20 -46 -21 -40 21 -48 19 -39 12 rrcurveto
            endchar
          </CharString>
          <CharString index="45">
            -68 -90 -66 -2 -81 -10 -111 hvcurveto
            -2 12 12 65 callsubr
            32 24 6 7 18 hvcurveto
            -11 63 -9 73 108 return
          </CharString>
          <CharString index="46">
            49 rmoveto
            -61 -61 36 55 -40 hvcurveto
            29 callgsubr
            82 -28 89 hhcurveto
            101 84 60 99 hvcurveto
            215 -308 -13 154 vvcurveto
            66 43 30 52 67 44 18 callsubr
            vhcurveto
            -46 callsubr
            vhcurveto
            return
          </CharString>
          <CharString index="47">
            -52 callgsubr
            -50 callgsubr
            return
          </CharString>
          <CharString index="48">
            -2 8 11 -1 5 hhcurveto
            18 14 3 3 9 hvcurveto
            78 4 77 7 77 vhcurveto
            2 -6 -10 1 -10 hhcurveto
            -17 -30 -1 -4 -18 hvcurveto
            11 -75 4 -77 -81 vvcurveto
            return
          </CharString>
          <CharString index="49">
            -24 callsubr
            -140 -26 137 130 -39 callsubr
            67 39 4 callsubr
            -1 12 13 -1 11 hhcurveto
            22 15 0 9 17 hvcurveto
            2 8 1 9 8 vvcurveto
            96 -57 81 -141 vhcurveto
            endchar
          </CharString>
          <CharString index="50">
            vvcurveto
            -71 -9 -75 -6 -62 vhcurveto
            -2 9 13 -2 12 hhcurveto
            23 25 3 7 24 hvcurveto
            -12 61 -6 87 83 return
          </CharString>
          <CharString index="51">
            59 58 7 17 53 hvcurveto
            11 26 0 31 26 vvcurveto
            79 return
          </CharString>
          <CharString index="52">
            -2 12 13 0 11 hhcurveto
            22 15 3 6 17 hvcurveto
            2 9 1 8 8 vvcurveto
            return
          </CharString>
          <CharString index="53">
            -32 -27 33 -39 hhcurveto
            -47 -43 -35 -31 -18 hvcurveto
            3 -13 12 -12 17 -7 rrcurveto
            28 16 19 4 19 return
          </CharString>
          <CharString index="54">
            rmoveto
            5 16 2 13 24 vvcurveto
            17 -1 9 -2 9 vhcurveto
            -76 callsubr
            return
          </CharString>
          <CharString index="55">
            rmoveto
            -81 callgsubr
            hintmask 10000000
            -8 -27 -148 -6 -37 hhcurveto
            -78 -86 -12 callsubr
            hintmask 01100000
            -18 2 -10 2 -7 vhcurveto
            hintmask 10000000
            6 27 119 8 37 hhcurveto
            93 87 -1 -8 87 hvcurveto
            endchar
          </CharString>
          <CharString index="56">
            -106 -135 -136 31 -116 157 return
          </CharString>
          <CharString index="57">
            hvcurveto
            -60 callsubr
            return
          </CharString>
          <CharString index="58">
            -29 callgsubr
            -32 -37 -39 -30 -46 hhcurveto
            -95 -9 110 68 94 20 93 75 51 24 22 callsubr
            11 8 callgsubr
            20 18 -17 callsubr
            endchar
          </CharString>
          <CharString index="59">
            rmoveto
            -47 -41 -41 -32 -16 hvcurveto
            4 -12 9 -12 19 -9 rrcurveto
            29 18 13 11 19 hhcurveto
            return
          </CharString>
          <CharString index="60">
            5 callsubr
            -11 35 -6 return
          </CharString>
          <CharString index="61">
            -55 callsubr
            96 -52 81 -141 -139 -52 -79 -85 return
          </CharString>
          <CharString index="62">
            -53 callsubr
            -17 1 -9 2 -9 vhcurveto
            -56 callgsubr
            return
          </CharString>
          <CharString index="63">
            rmoveto
            3 -17 5 -12 11 -22 8 -15 5 -7 6 -7 20 18 104 63 31 16 65 35 81 42 65 25 rrcurveto
            5 10 2 22 8 vvcurveto
            8 -2 21 -5 11 vhcurveto
            -65 25 -81 42 -65 35 -31 16 -104 63 -20 18 return
          </CharString>
          <CharString index="64">
            36 callsubr
            -189 -56 7 callsubr
            return
          </CharString>
          <CharString index="65">
            5 callsubr
            -11 37 -7 131 188 vvcurveto
            160 2 51 13 107 -16 callsubr
            return
          </CharString>
          <CharString index="66">
            462 -21 241 -20 hstem
            75 444 rmoveto
            -59 callsubr
            return
          </CharString>
          <CharString index="67">
            25 56 -71 callsubr
            return
          </CharString>
          <CharString index="68">
            159 46 111 120 return
          </CharString>
          <CharString index="69">
            0 7 -52 hvcurveto
            -4 -18 -2 -13 -12 vvcurveto
            -15 3 -15 6 -20 vhcurveto
            return
          </CharString>
          <CharString index="70">
            71 9 75 6 62 vhcurveto
            2 -9 return
          </CharString>
          <CharString index="71">
            rmoveto
            -102 callgsubr
            return
          </CharString>
          <CharString index="72">
            -140 -26 133 134 return
          </CharString>
          <CharString index="73">
            hvcurveto
            -11 35 -6 return
          </CharString>
          <CharString index="74">
            rmoveto
            53 -20 24 -60 -78 -16 -38 -41 -49 20 -28 60 70 24 35 44 vhcurveto
            -82 40 rmoveto
            31 12 -11 -28 -25 -14 -18 -39 -30 -13 10 32 21 10 19 43 hvcurveto
            endchar
          </CharString>
          <CharString index="75">
            -12 11 -11 -22 callgsubr
            11 10 12 11 -30 52 -9 14 -42 80 42 80 9 12 30 54 rrcurveto
            endchar
          </CharString>
          <CharString index="76">
            -1 17 11 -1 9 hhcurveto
            15 18 3 7 21 -34 callsubr
            174 -5 callgsubr
            return
          </CharString>
          <CharString index="77">
            0 -32 -22 -6 -38 vhcurveto
            -28 30 47 -16 51 hhcurveto
            105 42 return
          </CharString>
          <CharString index="78">
            -9 1 callsubr
            return
          </CharString>
          <CharString index="79">
            rmoveto
            28 -9 24 -41 -53 -11 -31 -32 -26 9 -25 41 47 17 28 34 vhcurveto
            endchar
          </CharString>
          <CharString index="80">
            9 hhcurveto
            25 return
          </CharString>
          <CharString index="81">
            rmoveto
            5 16 2 13 24 vvcurveto
            17 -1 -26 callgsubr
            return
          </CharString>
          <CharString index="82">
            43 9 51 1 128 9 rrcurveto
            4 14 2 12 10 vvcurveto
            13 -3 9 -3 6 vhcurveto
            -43 -9 -51 -1 -128 -9 rrcurveto
            -4 -14 -2 -12 -10 vvcurveto
            return
          </CharString>
          <CharString index="83">
            74 67 28 38 51 hvcurveto
            -9 54 -31 25 0 vvcurveto
            -45 -40 -61 -26 -51 hhcurveto
            return
          </CharString>
          <CharString index="84">
            33 19 33 hhcurveto
            57 8 -62 callsubr
            return
          </CharString>
          <CharString index="85">
            -10 25 -5 65 77 23 35 62 60 -62 60 -23 35 -65 77 -25 -7 return
          </CharString>
          <CharString index="86">
            -15 callsubr
            2 -11 4 -8 vhcurveto
            return
          </CharString>
          <CharString index="87">
            47 -27 callgsubr
            return
          </CharString>
          <CharString index="88">
            -12 -15 72 165 58 142 56 return
          </CharString>
          <CharString index="89">
            74 140 rrcurveto
            28 -5 10 0 vhcurveto
            -5 -45 return
          </CharString>
          <CharString index="90">
            -11 callgsubr
            87 -78 38 -77 vhcurveto
            return
          </CharString>
          <CharString index="91">
            -30 callgsubr
            -143 -4 -82 -11 -95 vhcurveto
            return
          </CharString>
          <CharString index="92">
            -2 -8 0 -7 -7 vvcurveto
            -14 return
          </CharString>
          <CharString index="93">
            -13 -24 vvcurveto
            return
          </CharString>
          <CharString index="94">
            rmoveto
            118 54 -58 -144 -126 -64 -90 -154 -114 -58 48 165 109 45 96 173 hvcurveto
            return
          </CharString>
          <CharString index="95">
            0 9 -74 hvcurveto
            -1 callgsubr
            return
          </CharString>
          <CharString index="96">
            1 32 -4 callgsubr
            return
          </CharString>
          <CharString index="97">
            vhcurveto
            13 33 35 6 31 hhcurveto
            134 44 -128 -143 -131 -33 -138 -144 hvcurveto
            endchar
          </CharString>
          <CharString index="98">
            -9 17 17 0 17 hhcurveto
            12 12 1 1 5 hvcurveto
            -1 8 0 5 8 vvcurveto
            77 54 47 67 83 return
          </CharString>
          <CharString index="99">
            99 9 -21 193 67 401 -20 return
          </CharString>
          <CharString index="100">
            13 -21 657 -20 return
          </CharString>
          <CharString index="101">
            -15 16 callsubr
            return
          </CharString>
          <CharString index="102">
            -44 hlineto
            70 123 79 95 -18 callsubr
            -58 -1 -54 hhcurveto
            return
          </CharString>
          <CharString index="103">
            -77 45 rmoveto
            26 12 -12 -32 -28 -14 -20 -34 -25 -13 11 36 24 10 21 38 hvcurveto
            endchar
          </CharString>
          <CharString index="104">
            11 29 5 21 26 vvcurveto
            21 -28 -31 6 -31 hhcurveto
            return
          </CharString>
          <CharString index="105">
            vvcurveto
            74 -60 35 -64 vhcurveto
            return
          </CharString>
          <CharString index="106">
            72 365 56 return
          </CharString>
          <CharString index="107">
            -18 138 rrcurveto
            hintmask 10100000
            1 -11 -15 0 -12 hhcurveto
            -33 -27 -11 -9 -19 hvcurveto
            67 -151 return
          </CharString>
          <CharString index="108">
            2 -9 vhcurveto
            return
          </CharString>
          <CharString index="109">
            vmoveto
            10 callgsubr
          </CharString>
          <CharString index="110">
            81 92 57 80 hhcurveto
            29 23 -3 -30 23 hvcurveto
            return
          </CharString>
          <CharString index="111">
            18 callsubr
            hvcurveto
            return
          </CharString>
          <CharString index="112">
            -27 callsubr
            21 3 7 23 hvcurveto
            return
          </CharString>
          <CharString index="113">
            hstemhm
            50 103 -87 87 return
          </CharString>
          <CharString index="114">
            -146 -182 return
          </CharString>
          <CharString index="115">
            -9 40 -17 17 -34 22 -44 -48 -29 -18 -63 -51 9 -19 7 -9 12 -9 rrcurveto
            return
          </CharString>
          <CharString index="116">
            -3 11 9 -1 13 hhcurveto
            18 24 1 8 15 hvcurveto
            2 8 1 9 8 vvcurveto
            66 return
          </CharString>
          <CharString index="117">
            2 -38 4 rrcurveto
            -7 -16 -4 23 callgsubr
            17 3 return
          </CharString>
          <CharString index="118">
            37 56 -5 -45 callgsubr
            9 -18 callgsubr
            13 -5 16 vhcurveto
            return
          </CharString>
          <CharString index="119">
            59 59 -3 -6 57 hvcurveto
            4 18 1 14 13 vvcurveto
            18 -3 15 -7 22 vhcurveto
            return
          </CharString>
          <CharString index="120">
            -37 -56 5 7 -27 hvcurveto
            -2 -9 -2 -9 -17 vvcurveto
            -24 3 -13 5 -16 vhcurveto
            return
          </CharString>
          <CharString index="121">
            -77 -6 callgsubr
            return
          </CharString>
          <CharString index="122">
            0 3 -35 hvcurveto
            return
          </CharString>
          <CharString index="123">
            74 537 59 return
          </CharString>
          <CharString index="124">
            -1 10 hhcurveto
            return
          </CharString>
          <CharString index="125">
            -52 14 callsubr
            return
          </CharString>
          <CharString index="126">
            129 -21 344 -20 hstem
            return
          </CharString>
          <CharString index="127">
            549 -21 154 -20 hstem
            return
          </CharString>
          <CharString index="128">
            30 5 callgsubr
            6 57 108 1 32 hhcurveto
            return
          </CharString>
          <CharString index="129">
            -38 -41 30 callsubr
            hvcurveto
            -1 return
          </CharString>
          <CharString index="130">
            -152 vvcurveto
            return
          </CharString>
          <CharString index="131">
            hhcurveto
            102 30 -67 -82 -61 -22 -86 -81 -33 -25 15 14 -14 hvcurveto
            return
          </CharString>
          <CharString index="132">
            -35 -26 33 -39 hhcurveto
            endchar
          </CharString>
          <CharString index="133">
            25 30 vhcurveto
            return
          </CharString>
          <CharString index="134">
            -35 callsubr
            155 46 115 120 return
          </CharString>
          <CharString index="135">
            -21 130 -20 hstem
            90 130 return
          </CharString>
          <CharString index="136">
            -20 hstemhm
            hintmask 01100000
            return
          </CharString>
          <CharString index="137">
            -7 0 -5 -1 -7 return
          </CharString>
          <CharString index="138">
            5 16 2 13 24 vvcurveto
            17 -1 -26 callgsubr
            -7 return
          </CharString>
          <CharString index="139">
            -212 309 18 -154 vvcurveto
            -44 -28 -50 -82 vhcurveto
            return
          </CharString>
          <CharString index="140">
            rrcurveto
            -1 7 7 0 6 hhcurveto
            21 18 3 4 15 hvcurveto
            return
          </CharString>
          <CharString index="141">
            rlineto
            -4 -17 -2 -15 -10 vvcurveto
            -15 44 callsubr
            return
          </CharString>
          <CharString index="142">
            -2 callsubr
            endchar
          </CharString>
          <CharString index="143">
            655 rmoveto
            return
          </CharString>
          <CharString index="144">
            2 8 1 8 6 vvcurveto
            15 -4 11 -4 8 vhcurveto
            return
          </CharString>
          <CharString index="145">
            -63 -59 42 97 98 71 50 65 75 51 -48 -98 return
          </CharString>
          <CharString index="146">
            303 36 callsubr
            -189 -59 7 callsubr
            return
          </CharString>
          <CharString index="147">
            60 13 35 37 30 -11 28 -46 -53 -20 -33 -37 return
          </CharString>
          <CharString index="148">
            11 -24 -26 5 -25 hhcurveto
            -10 -9 0 -2 -9 hvcurveto
            return
          </CharString>
          <CharString index="149">
            -21 472 -20 return
          </CharString>
          <CharString index="150">
            10 17 callsubr
            return
          </CharString>
          <CharString index="151">
            3 -9 3 -6 vhcurveto
            return
          </CharString>
          <CharString index="152">
            65 -58 -21 return
          </CharString>
          <CharString index="153">
            12 -21 654 -20 24 52 callsubr
            return
          </CharString>
          <CharString index="154">
            102 hstem
            110 103 47 103 vstem
            213 return
          </CharString>
          <CharString index="155">
            vhcurveto
            16 -90 1 -78 23 callsubr
            -96 -3 return
          </CharString>
          <CharString index="156">
            -189 -21 195 72 return
          </CharString>
          <CharString index="157">
            -210 74 605 -20 return
          </CharString>
          <CharString index="158">
            -8 -47 -84 -1 -28 hhcurveto
            return
          </CharString>
          <CharString index="159">
            -20 hstemhm
            hintmask 11000000
            return
          </CharString>
          <CharString index="160">
            17 callgsubr
            -42 15 callsubr
            return
          </CharString>
          <CharString index="161">
            135 vstem
            return
          </CharString>
          <CharString index="162">
            hlineto
            -15 callsubr
            return
          </CharString>
          <CharString index="163">
            -7 -37 -174 -7 -50 hhcurveto
            -105 return
          </CharString>
          <CharString index="164">
            -154 -53 -21 807 -20 hstem
            return
          </CharString>
          <CharString index="165">
            rrcurveto
            -1 11 14 0 12 hhcurveto
            31 return
          </CharString>
          <CharString index="166">
            281 45 -43 -21 111 52 return
          </CharString>
          <CharString index="167">
            -21 141 -20 hstem
            return
          </CharString>
          <CharString index="168">
            -29 callsubr
            7 return
          </CharString>
          <CharString index="169">
            17 -21 418 64 return
          </CharString>
          <CharString index="170">
            66 7 -20 hstemhm
            return
          </CharString>
          <CharString index="171">
            0 -41 -51 vvcurveto
            return
          </CharString>
          <CharString index="172">
            0 10 hhcurveto
            return
          </CharString>
          <CharString index="173">
            -8 47 hvcurveto
            return
          </CharString>
        <CharString name=".notdef">
          -233 endchar
        </CharString>
        <CharString name="A">
          99 9 -21 193 67 401 -105 callsubr
          endchar
        </CharString>
        <CharString name="AE">
          314 10 -21 24 -21 189 66 50 67 289 -20 hstemhm
          hintmask 01111000
          476 76 rmoveto
          -10 50 -12 93 -8 76 rrcurveto
          1 19 19 1 22 -81 callsubr
          -17 -18 0 1 -20 hvcurveto
          -7 72 -7 77 -1 57 rrcurveto
          3 29 55 0 20 -88 callsubr
          -61 hlineto
          -38 -109 1 6 -48 hvcurveto
          -34 -162 -131 -301 -84 -181 rrcurveto
          -7 24 12 -3 25 hhcurveto
          9 10 0 2 14 hvcurveto
          20 62 20 61 22 60 rrcurveto
          3 34 34 1 17 hhcurveto
          45 41 -1 -1 41 hvcurveto
          5 -64 3 -72 -47 vvcurveto
          6 57 65 1 32 hhcurveto
          hintmask 10111000
          37 109 -82 callsubr
          51 callsubr
          -24 -17 15 callsubr
          -159 170 rmoveto
          -40 -41 0 1 -43 hvcurveto
          41 111 43 110 46 110 rrcurveto
          7 hlineto
          17 -91 15 -120 7 -57 1 -13 3 -22 2 -27 rrcurveto
          -2 -25 -22 0 -11 hhcurveto
          endchar
        </CharString>
        <CharString name="Aacute">
          -8 callsubr
          209 -105 callsubr
          -59 126 -92 callgsubr
        </CharString>
        <CharString name="Acircumflex">
          -79 callgsubr
          136 126 -90 callgsubr
        </CharString>
        <CharString name="Adieresis">
          99 9 -21 661 -20 75 102 hstem
          154 103 47 103 vstem
          -107 callgsubr
          134 181 -83 callgsubr
          endchar
        </CharString>
        <CharString name="Agrave">
          -79 callgsubr
          65 126 -77 callgsubr
          endchar
        </CharString>
        <CharString name="Aring">
          99 9 -21 661 -20 75 37 82 37 hstem
          193 174 vstem
          -107 callgsubr
          94 205 -33 callsubr
        </CharString>
        <CharString name="Atilde">
          -8 callsubr
          108 33 -33 66 hstemhm
          hintmask 11110000
          -107 callgsubr
          43 126 -48 callgsubr
          hintmask 11101000
          -54 callsubr
          26 callgsubr
        </CharString>
        <CharString name="B">
          112 -15 69 236 67 241 57 hstemhm
          405 87 -44 87 hintmask 11101000
          103 13 rmoveto
          -17 50 63 -11 90 hhcurveto
          173 56 83 105 69 -33 55 -74 29 hvcurveto
          hintmask 11110000
          44 33 20 54 60 vvcurveto
          110 -60 72 -146 -82 -56 -11 -17 -48 48 callsubr
          -106 -9 callgsubr
          147 359 rmoveto
          -7 -7 -14 -20 -40 vvcurveto
          -10 26 25 -5 24 hhcurveto
          18 17 2 3 16 hvcurveto
          hintmask 11101000
          71 -16 22 -53 -53 vvcurveto
          -64 -32 -55 -109 -32 -40 9 14 -35 vhcurveto
          -5 66 -3 104 91 vvcurveto
          87 0 74 8 81 vhcurveto
          10 25 28 8 29 hhcurveto
          hintmask 11110000
          95 28 -64 -69 -50 -19 -58 -72 -29 -20 5 10 -15 hvcurveto
          endchar
        </CharString>
        <CharString name="C">
          73 40 callgsubr
          39 callsubr
          -184 33 -158 215 -58 callsubr
        </CharString>
        <CharString name="CR">
          -150 endchar
        </CharString>
        <CharString name="Ccedilla">
          73 61 callgsubr
          39 74 -52 -21 610 59 hstemhm
          55 82 272 92 hintmask 11011110
          39 callsubr
          -168 27 -146 168 -24 hvcurveto
          -15 -88 -73 callgsubr
          40 rlineto
          hintmask 11101110
          3 4 -1 3 hhcurveto
          -58 callsubr
        </CharString>
        <CharString name="D">
          144 -15 71 540 59 hstem
          476 86 vstem
          100 627 rmoveto
          16 -90 1 -80 23 callsubr
          -96 -3 -104 -9 callgsubr
          -13 callgsubr
          199 -571 rmoveto
          -34 -36 8 13 -29 hvcurveto
          -6 68 -2 104 87 vvcurveto
          86 0 75 7 80 -10 callsubr
        </CharString>
        <CharString name="Delta">
          98 3 63 -47 -21 651 29 callsubr
          546 -2 rmoveto
          -95 callsubr
          hintmask 10100000
          3 49 154 2 54 hhcurveto
          hintmask 01100000
          53 148 0 -5 74 hvcurveto
          -421 73 rmoveto
          48 199 34 115 58 193 rrcurveto
          15 hlineto
          60 -198 33 -109 47 -196 rrcurveto
          hintmask 10100000
          -6 -60 -56 -3 -53 hhcurveto
          -43 -41 2 3 -42 hvcurveto
          endchar
        </CharString>
        <CharString name="E">
          15 callgsubr
          289 -20 hstem
          195 76 -106 callsubr
          endchar
        </CharString>
        <CharString name="Eacute">
          15 callgsubr
          474 -20 hstem
          195 58 callgsubr
          2 23 22 0 -107 callsubr
          28 628 -92 callgsubr
        </CharString>
        <CharString name="Ecircumflex">
          15 callgsubr
          481 -20 hstem
          195 76 -106 callsubr
          217 628 -90 callgsubr
        </CharString>
        <CharString name="Edieresis">
          15 callgsubr
          340 102 hstem
          406 759 -83 callgsubr
          -61 -683 -106 callsubr
          endchar
        </CharString>
        <CharString name="Egrave">
          15 callgsubr
          481 -20 hstem
          357 704 -77 callgsubr
          -162 -628 -106 callsubr
          endchar
        </CharString>
        <CharString name="Eth">
          154 -15 71 239 68 233 59 hstem
          45 146 284 86 vstem
          52 371 rmoveto
          -60 callsubr
          19 3 23 3 26 2 -1 -92 -3 -99 -10 -87 rrcurveto
          -13 callgsubr
          13 -77 3 -72 1 -113 -20 1 -22 2 -22 3 rrcurveto
          246 -315 rmoveto
          -34 -36 8 13 -29 hvcurveto
          -5 58 -3 83 77 vvcurveto
          17 hlineto
          41 44 -2 -5 44 hvcurveto
          5 16 2 13 24 vvcurveto
          17 -1 -26 callgsubr
          -5 -29 -50 -8 -71 hhcurveto
          75 1 68 6 71 -10 callsubr
        </CharString>
        <CharString name="Euro">
          127 -15 74 139 57 84 56 79 -20 142 59 hstem
          424 92 vstem
          23 395 rmoveto
          -20 callgsubr
          52 -12 hlineto
          -24 0 -23 2 -22 vhcurveto
          -20 -19 2 1 -19 hvcurveto
          39 callgsubr
          61 4 rlineto
          -122 20 59 -88 161 hhcurveto
          -24 callsubr
          -93 -43 60 79 -18 hvcurveto
          1 60 62 0 64 hhcurveto
          37 callsubr
          -64 -63 0 1 -63 hvcurveto
          -2 23 -1 23 24 vvcurveto
          13 vlineto
          66 -1 66 -2 65 -3 rrcurveto
          -21 callgsubr
          -63 -5 -63 -2 -65 -1 rrcurveto
          121 12 49 80 102 hhcurveto
          67 29 -42 -57 -8 0 -3 36 callgsubr
          9 callsubr
          -47 81 -141 -165 -66 -111 -149 -14 vhcurveto
          endchar
        </CharString>
        <CharString name="F">
          14 13 -21 298 61 302 -20 hstem
          244 290 rmoveto
          39 85 0 -7 43 hvcurveto
          1 12 0 8 6 vvcurveto
          19 -2 16 -3 17 vhcurveto
          -6 -24 -100 -4 -51 hhcurveto
          -44 hlineto
          76 0 84 6 60 vhcurveto
          3 35 28 0 24 -88 callsubr
          -32 -88 -39 callgsubr
          -48 -3 -176 -9 callgsubr
          -1 17 11 -1 54 callgsubr
          30 -6 138 -1 119 rrcurveto
          1 18 17 0 21 hhcurveto
          endchar
        </CharString>
        <CharString name="G">
          107 40 callgsubr
          505 51 rmoveto
          93 1 78 9 90 vhcurveto
          -2 -27 -26 -1 -31 hhcurveto
          -43 -73 0 8 -47 hvcurveto
          -1 -13 0 -9 -7 vvcurveto
          -21 2 -17 3 -19 vhcurveto
          25 5 80 5 56 1 4 -41 2 -40 1 -56 rrcurveto
          -30 -36 -44 -16 -57 hhcurveto
          27 callsubr
          67 39 4 callsubr
          -55 callsubr
          96 -57 81 -141 -189 -59 -150 -178 -179 33 -163 215 74 77 28 38 51 vhcurveto
          endchar
        </CharString>
        <CharString name="H">
          184 13 -21 296 65 296 -20 hstem
          446 -6 rmoveto
          -1 17 11 -1 9 hhcurveto
          25 21 3 7 23 -33 callgsubr
          -74 callsubr
          14 -79 2 -80 1 -119 rrcurveto
          -5 -43 -62 -3 -41 hhcurveto
          -38 -46 1 5 -45 hvcurveto
          99 2 93 21 callgsubr
          -90 1 -90 -64 callgsubr
          -1 17 11 -1 54 callgsubr
          30 -6 132 -1 117 rrcurveto
          6 42 48 1 54 hhcurveto
          34 51 -2 -5 46 hvcurveto
          -1 -92 -3 -111 -10 -84 rrcurveto
          endchar
        </CharString>
        <CharString name="HT">
          -314 endchar
        </CharString>
        <CharString name="I">
          -146 13 -21 657 -87 callgsubr
          endchar
        </CharString>
        <CharString name="Iacute">
          20 callgsubr
          209 -87 callgsubr
          -8 710 -92 callgsubr
        </CharString>
        <CharString name="Icircumflex">
          20 callgsubr
          216 -87 callgsubr
          179 710 -90 callgsubr
        </CharString>
        <CharString name="Idieresis">
          20 callgsubr
          75 102 hstem
          28 92 58 103 vstem
          106 -6 rmoveto
          -70 callgsubr
          107 1 99 -65 callgsubr
          -90 -64 callgsubr
          25 765 -101 callsubr
        </CharString>
        <CharString name="Igrave">
          20 callgsubr
          216 -87 callgsubr
          131 710 -77 callgsubr
          endchar
        </CharString>
        <CharString name="J">
          -180 -180 74 755 -20 hstem
          22 -106 rmoveto
          -33 -39 16 35 -26 hvcurveto
          0 -31 -25 -9 -54 vhcurveto
          -28 38 58 -18 44 hhcurveto
          140 19 101 181 107 1 335 13 103 hvcurveto
          -74 callsubr
          16 -90 1 -276 23 callsubr
          -133 -3 -94 -83 vhcurveto
          endchar
        </CharString>
        <CharString name="K">
          71 9 -21 25 -21 655 -20 22 -20 hstemhm
          hintmask 10010000
          209 319 rmoveto
          64 -100 84 -120 61 -110 58 callsubr
          28 9 8 16 hvcurveto
          -72 90 -105 143 -63 101 62 96 88 117 63 80 rrcurveto
          12 -23 -19 5 -23 hhcurveto
          -6 -8 0 -1 -7 hvcurveto
          -51 -110 -93 -119 -64 -100 rrcurveto
          -113 -325 rmoveto
          hintmask 01100000
          -70 callgsubr
          107 1 99 13 103 vhcurveto
          hintmask 10010000
          -14 -11 2 -9 hhcurveto
          -36 -18 -59 callgsubr
          16 -90 1 -90 -64 callgsubr
          endchar
        </CharString>
        <CharString name="L">
          -40 callgsubr
          -5 61 -2 120 81 vvcurveto
          107 1 99 -65 callgsubr
          -90 23 callsubr
          -94 -5 -128 -9 -89 vhcurveto
          endchar
        </CharString>
        <CharString name="LF">
          -326 endchar
        </CharString>
        <CharString name="Lslash">
          -40 callgsubr
          -4 48 -3 85 73 vvcurveto
          129 45 rlineto
          37 callgsubr
          -25 -14 -46 -18 -58 -21 rrcurveto
          104 1 97 13 100 vhcurveto
          -74 callsubr
          15 -87 2 -88 -144 vvcurveto
          -78 -26 34 callsubr
          16 9 28 11 34 13 -2 -85 -5 -101 -7 -73 rrcurveto
          endchar
        </CharString>
        <CharString name="M">
          305 52 callgsubr
          96 -35 callgsubr
          105 vlineto
          53 -99 73 -125 44 -109 rrcurveto
          -1 14 8 0 7 hhcurveto
          22 2 2 6 20 hvcurveto
          48 119 68 131 49 99 rrcurveto
          2 -45 0 -52 -62 -67 callsubr
          -1 17 11 -1 9 hhcurveto
          25 21 3 7 23 -33 callgsubr
          -74 callsubr
          -17 -89 -80 -184 -80 -156 -84 157 -101 190 -17 90 rrcurveto
          -54 callgsubr
          -16 -23 -59 callgsubr
          16 -90 1 -90 -64 callgsubr
          endchar
        </CharString>
        <CharString name="N">
          187 52 callgsubr
          97 -35 callgsubr
          45 0 44 1 43 vhcurveto
          95 -155 189 -250 16 -71 rrcurveto
          -31 callsubr
          107 1 99 13 103 vhcurveto
          -54 callgsubr
          -16 -23 -59 callgsubr
          16 -90 1 -90 23 callsubr
          -49 -1 -57 -2 -56 vhcurveto
          -102 142 -168 252 -28 108 rrcurveto
          -54 callgsubr
          -16 -23 -59 callgsubr
          16 -90 1 -90 -64 callgsubr
          endchar
        </CharString>
        <CharString name="Ntilde">
          187 -7 callsubr
          75 66 -33 66 hstemhm
          hintmask 11100000
          97 -35 callgsubr
          45 0 44 1 43 vhcurveto
          95 -155 189 -250 16 -71 rrcurveto
          -31 callsubr
          107 1 99 13 103 vhcurveto
          -54 callgsubr
          -16 -23 -59 callgsubr
          16 -90 1 -90 23 callsubr
          -49 -1 -57 -2 -56 vhcurveto
          -102 142 -168 252 -28 108 rrcurveto
          -54 callgsubr
          -16 -23 -59 callgsubr
          16 -90 1 -90 -64 callgsubr
          264 710 -46 callgsubr
        </CharString>
        <CharString name="O">
          -6 callsubr
          hstem
          -100 callgsubr
          endchar
        </CharString>
        <CharString name="OE">
          343 -15 74 238 67 232 59 hstem
          482 58 callgsubr
          2 23 22 0 -104 callgsubr
          -100 0 5 -57 hvcurveto
          7 -24 -26 4 -29 hhcurveto
          -189 -56 -150 -178 -179 30 -163 215 38 32 5 10 27 hvcurveto
          3 53 92 0 31 -85 callsubr
          -182 -17 rmoveto
          27 callsubr
          35 28 -10 -18 24 hvcurveto
          8 -89 5 -114 -55 vvcurveto
          -34 -1 -100 -3 -87 vhcurveto
          -19 -24 -31 -11 -41 hhcurveto
          endchar
        </CharString>
        <CharString name="Oacute">
          -6 callsubr
          183 -20 hstem
          -100 callgsubr
          -56 645 -92 callgsubr
        </CharString>
        <CharString name="Ocircumflex">
          -6 callsubr
          190 -20 hstem
          -100 callgsubr
          127 645 -90 callgsubr
        </CharString>
        <CharString name="Odieresis">
          -6 callsubr
          49 102 hstem
          55 121 253 117 vstem
          -100 callgsubr
          -21 700 -101 callsubr
        </CharString>
        <CharString name="Ograve">
          229 -6 callsubr
          190 -20 hstem
          348 -104 callsubr
          82 645 -77 callgsubr
          endchar
        </CharString>
        <CharString name="Omega">
          264 13 -21 604 65 hstem
          78 87 397 87 vstem
          430 167 rmoveto
          -165 vlineto
          37 118 -3 -7 57 hvcurveto
          2 9 2 5 -18 callgsubr
          9 -5 15 vhcurveto
          -5 -31 -28 -3 -37 hhcurveto
          -18 -16 1 1 -10 hvcurveto
          -3 25 -4 21 -2 20 rrcurveto
          112 44 48 105 96 vvcurveto
          132 -68 153 -218 -217 -68 -153 -132 -96 48 -105 110 -44 vhcurveto
          -8 -66 rlineto
          -1 -10 -16 -1 -18 hhcurveto
          -37 -28 3 5 -31 hvcurveto
          -5 -15 -3 -9 -24 vvcurveto
          -17 2 -5 1 callsubr
          7 57 118 3 37 hhcurveto
          165 vlineto
          -86 22 -45 93 84 vvcurveto
          137 55 93 143 144 55 -93 -137 -84 -45 -93 -87 -22 vhcurveto
          endchar
        </CharString>
        <CharString name="Oslash">
          -63 -21 69 16 callsubr
          69 -20 hstem
          215 -81 rmoveto
          19 72 rlineto
          -4 20 22 -2 24 hhcurveto
          216 30 163 179 131 -29 112 -87 53 hvcurveto
          30 81 rlineto
          14 -18 -14 6 -19 hhcurveto
          -8 -9 -1 36 callgsubr
          -20 -74 rlineto
          5 -19 -22 2 -23 hhcurveto
          -189 -56 7 callsubr
          -133 16 -124 97 -55 hvcurveto
          -27 -78 rlineto
          -15 16 20 -6 18 hhcurveto
          6 7 1 2 7 hvcurveto
          -81 407 rmoveto
          -39 callsubr
          17 16 -3 -4 15 vhcurveto
          -46 -165 -52 -171 -53 -157 rrcurveto
          -51 49 -12 90 91 vvcurveto
          166 -267 rmoveto
          -17 -15 2 3 -13 hvcurveto
          46 166 51 167 53 156 rrcurveto
          44 -47 18 -81 -99 vvcurveto
          -134 -26 -133 -141 vhcurveto
          endchar
        </CharString>
        <CharString name="Otilde">
          -6 callsubr
          49 66 -33 66 hstemhm
          hintmask 11100000
          -100 callgsubr
          38 645 -46 callgsubr
        </CharString>
        <CharString name="P">
          68 13 -21 243 67 296 57 hstem
          424 87 vstem
          249 331 rmoveto
          -10 callgsubr
          -87 -53 -10 -18 -54 hvcurveto
          16 -90 1 -78 -64 callgsubr
          -70 callgsubr
          86 0 73 7 79 vhcurveto
          13 31 35 9 28 24 callsubr
          endchar
        </CharString>
        <CharString name="Q">
          -141 -21 758 59 hstem
          300 -43 callsubr
          -170 27 -154 184 -16 hvcurveto
          33 -50 31 -50 23 -48 32 callgsubr
          -30 38 -36 48 -37 49 rrcurveto
          161 28 24 148 161 vvcurveto
          182 -56 146 -190 vhcurveto
          -89 callgsubr
          endchar
        </CharString>
        <CharString name="R">
          101 9 -21 25 -21 606 57 hstemhm
          424 87 hintmask 10110000
          249 349 rmoveto
          -7 -7 -14 -31 -37 vvcurveto
          14 -5 15 -4 14 -2 58 -91 50 -81 48 -102 32 callgsubr
          -54 70 -65 99 -57 91 rrcurveto
          105 20 44 81 93 vvcurveto
          115 -53 81 -165 -87 -53 -10 -18 -54 vhcurveto
          16 -90 1 -78 -64 callgsubr
          hintmask 01110000
          -70 callgsubr
          87 0 73 7 80 vhcurveto
          12 31 35 8 28 hhcurveto
          102 30 -62 -77 -56 -22 -81 -81 -33 -25 14 13 -14 hvcurveto
          endchar
        </CharString>
        <CharString name="S">
          14 -15 64 547 59 hstemhm
          61 50 callgsubr
          hintmask 11110000
          260 -61 callsubr
          hintmask 11101000
          32 callsubr
          endchar
        </CharString>
        <CharString name="Scaron">
          20 -15 64 547 59 180 -20 hstemhm
          59 50 callgsubr
          hintmask 11111000
          258 -61 callsubr
          hintmask 11110100
          32 callsubr
          -136 786 -63 callsubr
        </CharString>
        <CharString name="T">
          18 13 -21 582 65 14 6 callgsubr
          457 565 rmoveto
          -81 callgsubr
          hintmask 11000000
          -8 -27 -129 -6 -37 hhcurveto
          -78 -96 -12 callsubr
          -18 2 -10 2 -7 vhcurveto
          24 5 104 7 49 2 rrcurveto
          6 -72 1 -83 -112 -67 callsubr
          -70 callgsubr
          79 0 79 5 78 vhcurveto
          60 -1 54 -2 63 -6 rrcurveto
          endchar
        </CharString>
        <CharString name="Thorn">
          55 13 -21 143 67 296 57 94 -20 hstem
          415 87 vstem
          93 -6 rmoveto
          -70 callgsubr
          46 0 45 1 45 vhcurveto
          14 33 37 10 30 24 callsubr
          -10 callgsubr
          -37 -32 -2 -4 -29 hvcurveto
          2 33 3 32 5 33 rrcurveto
          -74 callsubr
          16 -90 1 -90 -64 callgsubr
          endchar
        </CharString>
        <CharString name="U">
          19 callgsubr
          hstem
          546 277 rmoveto
          107 1 160 13 103 vhcurveto
          1 -14 -9 65 callgsubr
          -30 -15 -59 callgsubr
          16 -90 1 -121 23 callsubr
          -133 -19 -84 -131 -134 -21 84 133 107 1 161 -65 callgsubr
          -120 23 callsubr
          -181 27 -111 195 195 26 111 181 vhcurveto
          endchar
        </CharString>
        <CharString name="Uacute">
          19 callgsubr
          53 callgsubr
          546 277 rmoveto
          107 1 160 13 103 vhcurveto
          1 -14 -9 65 callgsubr
          -30 -15 -59 callgsubr
          16 -90 1 -121 23 callsubr
          -133 -19 -84 -131 -134 -21 84 133 107 1 161 -65 callgsubr
          -120 23 callsubr
          -181 27 -111 195 195 26 111 181 vhcurveto
          -286 427 -92 callgsubr
        </CharString>
        <CharString name="Ucircumflex">
          -72 callsubr
          -91 427 -90 callgsubr
        </CharString>
        <CharString name="Udieresis">
          19 callgsubr
          75 102 hstem
          546 277 rmoveto
          107 1 160 13 103 vhcurveto
          1 -14 -9 65 callgsubr
          -30 -15 -59 callgsubr
          16 -90 1 -121 23 callsubr
          -133 -19 -84 -131 -134 -21 84 133 107 1 161 -65 callgsubr
          -120 23 callsubr
          -181 27 -111 195 195 26 111 181 vhcurveto
          -243 482 -101 callsubr
        </CharString>
        <CharString name="Ugrave">
          -72 callsubr
          -171 427 -77 callgsubr
          endchar
        </CharString>
        <CharString name="V">
          107 46 callsubr
          337 hmoveto
          38 151 146 2 callgsubr
          -80 -304 -56 -138 rrcurveto
          -6 hlineto
          -66 162 -68 261 0 callsubr
          101 12 callgsubr
          endchar
        </CharString>
        <CharString name="W">
          351 46 callsubr
          507 -8 rmoveto
          -3 callgsubr
          38 151 116 2 callgsubr
          -50 -284 -56 -158 rrcurveto
          -6 hlineto
          -54 141 -35 191 -21 141 rrcurveto
          1 -8 -7 65 callgsubr
          -25 -22 -6 -6 -15 hvcurveto
          -18 -140 -41 -214 -44 -109 rrcurveto
          -6 hlineto
          -66 182 -38 241 0 callsubr
          71 12 callgsubr
          20 79 41 153 37 135 rrcurveto
          5 hlineto
          37 -138 34 -147 26 -90 rrcurveto
          endchar
        </CharString>
        <CharString name="X">
          74 52 callgsubr
          149 648 rmoveto
          1 -11 -19 0 -12 hhcurveto
          -31 -23 -9 -8 -16 hvcurveto
          64 -95 62 -102 60 -105 -54 -100 -89 -135 -61 -86 rrcurveto
          -12 26 26 -5 27 hhcurveto
          8 12 0 1 8 hvcurveto
          33 88 50 96 52 87 50 -90 47 -92 44 -89 rrcurveto
          -1 11 10 65 callsubr
          34 26 4 13 22 hvcurveto
          -70 101 -67 109 -63 112 53 98 76 117 61 86 rrcurveto
          12 -26 -26 5 -27 hhcurveto
          -8 -12 0 36 callgsubr
          -33 -89 -34 -83 -51 -82 -46 84 -44 85 -41 85 rrcurveto
          endchar
        </CharString>
        <CharString name="Y">
          3 63 callgsubr
          hstem
          191 -6 rmoveto
          -2 17 11 0 5 callsubr
          -8 22 -5 81 -3 89 30 116 129 268 25 56 -78 callsubr
          63 -127 103 -190 37 -120 -2 -71 -4 -72 -7 -60 rrcurveto
          endchar
        </CharString>
        <CharString name="Yacute">
          31 63 callgsubr
          207 -20 hstem
          204 -6 rmoveto
          -2 17 11 0 5 callsubr
          -8 22 -5 81 -3 89 30 116 129 268 25 56 -78 callsubr
          63 -127 103 -190 37 -120 -2 -71 -4 -72 -7 -60 rrcurveto
          7 710 -92 callgsubr
        </CharString>
        <CharString name="Ydieresis">
          3 63 callgsubr
          73 102 hstem
          117 101 47 95 vstem
          191 -6 rmoveto
          -2 17 11 0 5 callsubr
          -8 22 -5 81 -3 89 30 116 129 268 25 56 -78 callsubr
          63 -127 103 -190 37 -120 -2 -71 -4 -72 -7 -60 rrcurveto
          177 765 -83 callgsubr
          endchar
        </CharString>
        <CharString name="Z">
          23 3 70 -63 -21 584 66 7 6 callgsubr
          21 callsubr
          hintmask 01100000
          37 151 -82 callsubr
          hintmask 10100000
          -24 callgsubr
          hintmask 10010000
          -56 -115 -38 callsubr
          hintmask 10100000
          15 56 108 5 52 hhcurveto
          80 hlineto
          -99 -161 -141 -254 -80 -126 rrcurveto
          endchar
        </CharString>
        <CharString name="Zcaron">
          23 3 70 -63 -21 584 66 196 -20 hstemhm
          hintmask 10110000
          21 callsubr
          hintmask 01110000
          37 151 -82 callsubr
          hintmask 10110000
          -24 callgsubr
          -56 -115 -38 callsubr
          15 56 108 5 52 hhcurveto
          80 hlineto
          -99 -161 -141 -254 -80 -126 rrcurveto
          81 803 -63 callsubr
        </CharString>
        <CharString name="a">
          -47 callgsubr
          6 callsubr
          hintmask 10111000
          -103 callsubr
          hintmask 01110100
          -105 callgsubr
          endchar
        </CharString>
        <CharString name="aacute">
          -103 callgsubr
          -138 281 -78 callgsubr
        </CharString>
        <CharString name="acircumflex">
          -103 callgsubr
          29 281 -91 callsubr
        </CharString>
        <CharString name="acute">
          -39 20 callsubr
          130 528 -78 callgsubr
        </CharString>
        <CharString name="acute.case">
          -35 725 -21 134 -20 hstem
          125 704 -92 callgsubr
        </CharString>
        <CharString name="adieresis">
          -47 callgsubr
          66 102 6 callsubr
          hintmask 01111010
          -103 callsubr
          -105 callgsubr
          -108 352 rmoveto
          -102 callsubr
          vhcurveto
          hintmask 10111100
          42 16 25 30 hvcurveto
          150 hmoveto
          -93 callsubr
          endchar
        </CharString>
        <CharString name="ae">
          253 -15 72 -52 -21 238 49 151 56 6 callsubr
          158 81 188 84 hintmask 10110111
          237 478 rmoveto
          -44 callgsubr
          hvcurveto
          -93 callgsubr
          16 -30 -37 8 -35 hhcurveto
          hintmask 10111011
          -36 callgsubr
          71 44 25 56 58 hvcurveto
          hintmask 01111011
          -51 27 47 -31 79 hhcurveto
          66 50 19 37 53 -27 callgsubr
          hintmask 10111011
          -58 -60 -42 -4 -22 hhcurveto
          -104 -9 101 69 hvcurveto
          -4 30 31 -1 30 hhcurveto
          -56 callsubr
          -61 70 -99 -62 -46 -28 -40 -32 vhcurveto
          45 -26 -46 23 -55 hhcurveto
          -38 -421 rmoveto
          -37 callgsubr
          32 37 -10 -32 36 hvcurveto
          2 -18 2 -17 4 -16 rrcurveto
          -50 -40 -47 -19 -36 hhcurveto
          298 365 -70 callsubr
          -36 -34 2 3 -25 hvcurveto
          82 6 30 55 68 hhcurveto
          endchar
        </CharString>
        <CharString name="agrave">
          -103 callgsubr
          -33 281 -79 callsubr
        </CharString>
        <CharString name="ampersand">
          131 -15 64 248 55 247 56 hstemhm
          50 87 -64 83 156 92 hintmask 11101100
          249 36 callsubr
          -81 -95 -56 -119 -67 27 -55 63 -26 hvcurveto
          hintmask 11110100
          -79 -30 -34 -58 -71 vvcurveto
          -105 63 -83 166 77 71 24 42 44 vhcurveto
          187 vlineto
          19 0 20 2 19 vhcurveto
          30 -2 32 -2 35 -1 -25 callgsubr
          -33 -2 -30 -2 -28 -1 9 78 rcurveline
          2 -9 -14 2 -11 60 callgsubr
          -73 rlineto
          -1 -18 -17 0 -16 hhcurveto
          hintmask 11101100
          -129 -57 23 102 48 31 74 55 51 19 22 callsubr
          12 43 callsubr
          20 23 -17 callsubr
          148 -380 rmoveto
          -64 -2 -44 -74 vvcurveto
          -30 -34 -44 -14 -38 hhcurveto
          hintmask 11110100
          -102 -40 60 64 102 51 22 123 26 28 -1 -1 32 hvcurveto
          endchar
        </CharString>
        <CharString name="apple">
          -351 endchar
        </CharString>
        <CharString name="approxequal">
          174 70 -13 70 63 70 -13 70 hstemhm
          hintmask 10010000
          502 388 rmoveto
          -28 callgsubr
          hintmask 01010000
          3 callsubr
          -190 vmoveto
          -28 callgsubr
          hintmask 01100000
          3 callsubr
          endchar
        </CharString>
        <CharString name="aring">
          -47 callgsubr
          49 37 0 92 0 37 hstemhm
          50 100 -84 84 39 86 hintmask 1011010101000000
          -88 callgsubr
          hintmask 0111101011000000
          -83 callsubr
          -105 callgsubr
          4 364 34 callgsubr
          vhcurveto
          hintmask 1011010101000000
          65 24 37 47 hvcurveto
          -4 callsubr
        </CharString>
        <CharString name="asciicircum">
          320 -21 329 -20 hstem
          144 299 rmoveto
          39 90 43 81 45 77 45 -82 48 -82 34 -84 14 2 9 4 18 9 12 7 6 4 5 4 -14 20 -41 80 -12 24 -28 52 -34 65 -20 52 rrcurveto
          4 -9 -27 2 -6 hhcurveto
          -6 -28 -2 -4 -8 hvcurveto
          -20 -52 -34 -65 -28 -52 -12 -24 -41 -79 -14 -21 5 -4 6 -4 12 -7 18 -9 9 -4 14 -2 rrcurveto
          endchar
        </CharString>
        <CharString name="asciitilde">
          264 70 -13 70 hstemhm
          hintmask 01000000
          502 288 rmoveto
          -3 callsubr
          hintmask 10000000
          -38 callgsubr
          hintmask 01000000
          3 callsubr
          endchar
        </CharString>
        <CharString name="asterisk">
          -65 384 -21 312 -20 hstem
          237 670 rmoveto
          4 -7 -13 65 callgsubr
          -14 -20 -1 -4 -17 hvcurveto
          7 -41 5 -40 1 -35 -32 11 -41 17 -37 19 -4 -5 -4 -10 -3 -7 -5 -13 -6 -22 -1 -19 37 -5 41 -9 34 -11 -20 -28 -29 -34 -28 -29 2 -5 8 -7 7 -5 rrcurveto
          12 -9 22 -12 14 -6 16 32 23 41 19 27 18 -24 22 -38 21 -40 6 1 9 4 8 6 11 8 18 16 12 12 -27 25 -30 34 -23 30 35 11 43 10 39 5 rrcurveto
          -1 19 -6 22 -5 13 -3 7 -4 9 -4 6 -34 -17 -40 -17 -33 -12 1 35 3 42 5 38 rrcurveto
          endchar
        </CharString>
        <CharString name="at">
          410 -137 64 103 61 332 50 102 60 hstem
          76 82 vstem
          557 -34 rmoveto
          -26 -76 -63 -13 -54 hhcurveto
          -136 -70 83 163 260 116 142 213 170 79 -81 -175 -112 -61 -116 -58 -22 -7 29 22 70 17 128 26 110 hvcurveto
          15 -54 -61 8 -56 hhcurveto
          -116 -77 -112 -170 -104 38 -57 69 43 55 25 42 47 hvcurveto
          -37 8 14 -30 37 hhcurveto
          129 107 135 157 203 -113 110 -208 -266 -151 -168 -297 -202 102 -105 197 64 71 10 15 43 hvcurveto
          5 14 3 17 18 vvcurveto
          12 -1 11 -3 6 vhcurveto
          -11 436 rmoveto
          -18 -159 -4 -40 -7 -50 rrcurveto
          -32 -32 -45 -22 -32 hhcurveto
          -42 -22 33 65 133 46 93 65 34 29 -7 -14 28 hvcurveto
          endchar
        </CharString>
        <CharString name="atilde">
          -47 callgsubr
          66 66 -33 66 7 -20 6 callsubr
          hintmask 1011101100000000
          -103 callsubr
          hintmask 0111010010000000
          -105 callgsubr
          -124 396 -48 callsubr
          hintmask 1011101100000000
          -57 callgsubr
          hintmask 1011010100000000
          25 callsubr
        </CharString>
        <CharString name="b">
          18 -15 72 357 64 16 callgsubr
          346 85 vstem
          72 327 rmoveto
          -154 -3 -53 -12 -109 vhcurveto
          -18 75 53 -8 45 hhcurveto
          139 62 85 188 143 -55 77 -86 -46 -55 -25 -43 -44 hvcurveto
          92 5 93 10 85 vhcurveto
          -74 callsubr
          15 -75 3 -66 -204 vvcurveto
          274 -56 rmoveto
          -150 -35 -64 -74 -24 -33 6 17 -35 vhcurveto
          269 vlineto
          40 35 45 25 36 hhcurveto
          54 31 -43 -100 hvcurveto
          endchar
        </CharString>
        <CharString name="backslash">
          103 -25 -21 734 -20 hstem
          394 -44 rmoveto
          -1 9 8 -1 8 hhcurveto
          22 24 5 14 20 hvcurveto
          -107 216 -106 261 -85 237 rrcurveto
          1 -9 -15 0 -10 hhcurveto
          -25 -19 -10 -8 -13 hvcurveto
          109 -216 103 -257 86 -241 rrcurveto
          endchar
        </CharString>
        <CharString name="bar">
          56 callgsubr
          93 -85 rmoveto
          -3 15 8 0 5 hhcurveto
          19 16 5 7 17 hvcurveto
          -9 43 -4 225 156 vvcurveto
          129 1 126 9 123 vhcurveto
          2 -13 -9 1 -6 hhcurveto
          -24 -11 -4 -8 -17 hvcurveto
          12 -108 1 -116 -182 vvcurveto
          -118 -2 -165 -8 -113 vhcurveto
          endchar
        </CharString>
        <CharString name="braceleft">
          38 callgsubr
          98 80 -80 92 hintmask 10100100
          126 333 rmoveto
          43 6 21 53 47 vvcurveto
          hintmask 10101000
          48 -12 54 47 vvcurveto
          50 12 16 39 17 38 -4 -7 32 vhcurveto
          5 16 3 13 24 vvcurveto
          hintmask 10011000
          51 callgsubr
          hintmask 10101000
          -7 -27 -56 -5 -37 hhcurveto
          -82 -20 -49 -63 hvcurveto
          -48 11 -57 -47 vvcurveto
          -50 -12 -39 -60 -9 vhcurveto
          -5 -7 -2 -14 -6 vvcurveto
          -6 2 -14 5 -7 vhcurveto
          60 -9 12 -39 -50 -47 -11 -57 -48 vvcurveto
          -63 20 -49 82 vhcurveto
          hintmask 01101000
          11 callsubr
          hintmask 10101000
          -7 -32 -38 -4 -17 hhcurveto
          -39 -12 16 50 hvcurveto
          hintmask 10100100
          47 12 54 48 vvcurveto
          47 -21 53 -43 6 vhcurveto
          endchar
        </CharString>
        <CharString name="braceright">
          38 callgsubr
          154 92 -80 80 hintmask 10101000
          218 327 rmoveto
          -43 -6 -21 -53 -47 vvcurveto
          hintmask 10100100
          -48 12 -54 -47 vvcurveto
          -50 -12 -16 -39 -17 -38 4 7 -32 vhcurveto
          -1 callgsubr
          hintmask 01101000
          -17 2 -29 callsubr
          hintmask 10101000
          7 27 56 5 37 hhcurveto
          82 20 49 63 hvcurveto
          48 -11 57 47 vvcurveto
          50 12 39 60 9 vhcurveto
          5 7 2 14 6 vvcurveto
          6 -2 14 -5 7 vhcurveto
          -60 9 -12 39 50 47 11 57 48 vvcurveto
          63 -20 49 -82 vhcurveto
          hintmask 10011000
          13 callsubr
          hintmask 10100100
          7 32 38 4 17 hhcurveto
          39 12 -16 -50 hvcurveto
          hintmask 10101000
          -47 -12 -54 -48 vvcurveto
          -47 21 -53 43 -6 vhcurveto
          endchar
        </CharString>
        <CharString name="bracketleft">
          48 callgsubr
          175 8 rmoveto
          -5 49 -1 156 -5 callgsubr
          79 0 169 6 63 vhcurveto
          28 51 31 callgsubr
          -81 callgsubr
          -7 -27 -56 -5 -37 hhcurveto
          -32 -30 0 5 -48 hvcurveto
          14 -87 2 -221 -106 vvcurveto
          -70 -5 -213 -9 callgsubr
          5 48 30 0 32 hhcurveto
          11 callsubr
          -8 -47 -51 0 -28 hhcurveto
          endchar
        </CharString>
        <CharString name="bracketright">
          48 callgsubr
          154 651 rmoveto
          5 -49 1 -156 -127 vvcurveto
          -79 0 -169 -6 -63 vhcurveto
          -28 -51 0 8 -47 hvcurveto
          -1 callgsubr
          -17 2 61 callsubr
          27 56 5 37 hhcurveto
          32 30 0 -5 48 hvcurveto
          -14 87 -2 221 106 vvcurveto
          70 5 213 11 92 vhcurveto
          -5 -48 -30 0 -32 hhcurveto
          13 callsubr
          8 47 51 0 28 hhcurveto
          endchar
        </CharString>
        <CharString name="breve">
          11 528 71 73 -20 hstem
          138 672 rmoveto
          -17 -9 -7 -9 -4 -19 rrcurveto
          -51 19 44 -56 64 hhcurveto
          64 44 56 51 19 hvcurveto
          -4 19 -7 9 -17 9 rrcurveto
          -43 -20 -25 -30 -54 hhcurveto
          -54 -24 30 43 -21 hvcurveto
          endchar
        </CharString>
        <CharString name="brokenbar">
          56 callgsubr
          160 257 rmoveto
          1 -6 -6 0 -5 hhcurveto
          -11 -10 -2 -5 -19 hvcurveto
          -118 -2 -105 -8 -113 vhcurveto
          -3 15 8 0 5 hhcurveto
          19 15 5 7 18 hvcurveto
          -9 43 -4 134 156 vvcurveto
          -57 127 rmoveto
          -1 5 7 0 5 hhcurveto
          11 10 2 5 19 hvcurveto
          118 2 105 8 113 vhcurveto
          3 -15 -8 0 -5 hhcurveto
          -19 -14 -3 -9 -19 hvcurveto
          9 -43 4 -134 -156 vvcurveto
          endchar
        </CharString>
        <CharString name="bullet">
          -161 258 -21 182 -20 hstem
          242 335 rmoveto
          45 -15 39 -65 -84 -18 -49 -52 -42 15 -39 65 74 28 46 52 vhcurveto
          endchar
        </CharString>
        <CharString name="c">
          -33 -15 -8 callgsubr
          -149 34 -113 145 68 51 24 31 47 hvcurveto
          -49 callsubr
        </CharString>
        <CharString name="caron">
          25 539 -21 154 -20 hstem
          130 672 -62 callgsubr
        </CharString>
        <CharString name="caron.case">
          25 715 60 callsubr
          112 835 -63 callsubr
        </CharString>
        <CharString name="ccedilla">
          -33 61 callgsubr
          39 -8 callgsubr
          -135 28 -106 113 -18 hvcurveto
          -15 -87 -73 callgsubr
          39 65 2 50 23 46 30 rlinecurve
          -49 callsubr
        </CharString>
        <CharString name="cedilla">
          39 61 callgsubr
          53 -20 hstem
          192 -10 rmoveto
          -16 -89 -73 callgsubr
          53 rlineto
          endchar
        </CharString>
        <CharString name="cent">
          7 13 -21 653 -20 hstem
          40 82 vstem
          262 213 rmoveto
          116 5 98 7 73 vhcurveto
          42 -5 16 -36 -37 vvcurveto
          30 callsubr
          vhcurveto
          -1 11 8 callgsubr
          20 23 -11 callgsubr
          83 -71 38 -73 4 vhcurveto
          4 41 3 29 3 15 rrcurveto
          2 -13 -10 1 -6 hhcurveto
          -31 -16 -4 -9 -15 hvcurveto
          2 -20 2 -25 2 -37 rrcurveto
          -119 -25 -46 -100 -114 vvcurveto
          -112 35 -97 112 -29 vhcurveto
          -8 -78 rlineto
          -3 15 10 0 7 hhcurveto
          23 17 4 9 19 hvcurveto
          -2 6 -2 21 -1 32 rrcurveto
          68 50 20 35 -20 callsubr
          -35 -37 -37 -23 -59 -2 rrcurveto
          -140 175 rmoveto
          77 24 75 62 27 vhcurveto
          -35 vlineto
          -101 -7 -114 -8 -90 vhcurveto
          -58 31 -13 79 51 vvcurveto
          endchar
        </CharString>
        <CharString name="circumflex">
          25 20 callsubr
          358 528 -91 callsubr
        </CharString>
        <CharString name="circumflex.case">
          25 725 60 callsubr
          373 704 -90 callgsubr
        </CharString>
        <CharString name="colon">
          -199 6 -21 493 -20 hstem
          87 130 vstem
          217 9 callgsubr
          363 2 callsubr
        </CharString>
        <CharString name="comma">
          -202 -152 30 callgsubr
          76 54 callsubr
          75 -152 -66 callgsubr
        </CharString>
        <CharString name="copyright">
          153 212 44 -44 82 338 86 -44 44 hstemhm
          60 118 229 149 hintmask 10011100
          305 632 rmoveto
          -98 -29 -74 -91 -93 17 -80 110 38 35 15 20 27 hvcurveto
          -5 32 -22 19 0 vvcurveto
          -24 -21 -30 -14 -22 hhcurveto
          -63 -12 64 61 73 20 53 55 28 18 -24 -34 -5 0 -2 -2 -8 hvcurveto
          hintmask 01101100
          -2 12 7 0 5 hhcurveto
          12 8 0 6 11 hvcurveto
          1 6 2 7 4 vvcurveto
          50 -30 41 -72 vhcurveto
          26 42 -13 callsubr
          225 -206 rmoveto
          -16 callgsubr
          endchar
        </CharString>
        <CharString name="d">
          36 -15 77 -44 -21 422 59 202 -20 22 -20 hstemhm
          50 85 hintmask 10110100
          338 390 rmoveto
          -90 0 -95 -2 -83 vhcurveto
          -30 -27 -47 -30 -42 hhcurveto
          -79 -6 104 54 78 7 121 93 35 33 -13 -16 35 hvcurveto
          73 -98 rmoveto
          129 0 130 15 129 vhcurveto
          hintmask 10101100
          -9 -11 2 -11 hhcurveto
          -25 -28 0 -10 -22 hvcurveto
          14 -75 2 -66 1 -77 rrcurveto
          16 -35 -35 8 -33 hhcurveto
          -150 -34 -132 -121 -94 20 -146 121 50 54 29 36 38 hvcurveto
          -2 -52 rlineto
          hintmask 01101100
          -1 9 8 0 9 hhcurveto
          26 24 3 7 22 hvcurveto
          -17 109 -1 45 131 vvcurveto
          endchar
        </CharString>
        <CharString name="dagger">
          -36 9 -21 464 65 138 -20 hstem
          -64 callsubr
          -96 -3 -129 -9 callgsubr
          -2 17 11 0 -47 callsubr
          178 -5 callgsubr
          114 vlineto
          55 -1 48 -2 58 -6 rrcurveto
          endchar
        </CharString>
        <CharString name="daggerdbl">
          -36 9 -21 138 65 261 65 138 -20 hstem
          171 83 vstem
          -64 callsubr
          -36 -1 -40 -1 -40 vhcurveto
          -53 -48 3 6 -56 -50 callsubr
          22 6 93 6 44 2 -2 -49 -3 -47 -5 -40 rrcurveto
          -2 17 11 0 5 callsubr
          -6 17 -3 49 -3 62 53 -1 55 -2 46 -6 33 callgsubr
          -23 -7 -95 -6 -43 -1 rrcurveto
          -2 49 0 52 46 vvcurveto
          114 vlineto
          55 -1 48 -2 58 -6 rrcurveto
          endchar
        </CharString>
        <CharString name="degree">
          -121 417 52 162 52 hstem
          302 552 rmoveto
          89 -32 42 -88 -117 -25 -64 -71 -83 32 -48 88 104 38 59 76 vhcurveto
          -122 79 rmoveto
          46 21 -22 -56 -49 -25 -35 -60 -44 -23 19 64 42 18 37 67 hvcurveto
          endchar
        </CharString>
        <CharString name="dieresis">
          10 552 47 callsubr
          607 -101 callsubr
        </CharString>
        <CharString name="dieresis.case">
          10 704 47 callsubr
          759 -101 callsubr
        </CharString>
        <CharString name="divide">
          116 -21 465 -20 hstem
          507 286 -45 callsubr
          -142 214 -55 callgsubr
          -335 2 callsubr
        </CharString>
        <CharString name="dollar">
          87 -71 -21 77 64 700 -20 hstemhm
          83 50 callgsubr
          hintmask 11111000
          214 -89 rmoveto
          -3 13 8 0 6 hhcurveto
          20 14 4 9 16 hvcurveto
          -2 11 -1 23 -1 30 rrcurveto
          5 hlineto
          101 84 60 99 122 -101 51 -86 45 hvcurveto
          2 77 3 76 5 75 rrcurveto
          46 -15 29 -46 -62 vvcurveto
          -6 callgsubr
          vhcurveto
          -55 callsubr
          88 -45 76 -117 11 vhcurveto
          2 31 4 31 3 31 rrcurveto
          2 -11 -8 1 -6 hhcurveto
          -26 -13 -4 -9 -13 hvcurveto
          3 -83 rlineto
          -114 -12 -43 -72 -78 vvcurveto
          -106 77 -49 77 -41 vhcurveto
          -3 -81 -4 -80 -5 -75 -40 14 -38 29 -27 38 rrcurveto
          0 -41 -25 -9 -54 vhcurveto
          37 -35 53 -25 61 -10 rrcurveto
          66 74 rmoveto
          67 0 68 1 68 vhcurveto
          hintmask 11110100
          57 -32 47 -34 -59 vvcurveto
          -43 -27 -49 -78 -2 vhcurveto
          -45 493 rmoveto
          -48 0 -50 -2 -52 vhcurveto
          -41 28 -30 32 48 vvcurveto
          56 31 30 42 8 vhcurveto
          endchar
        </CharString>
        <CharString name="dotaccent">
          -228 561 114 hstem
          60 114 vstem
          174 623 -28 callsubr
        </CharString>
        <CharString name="dotlessi">
          -2 callgsubr
          hstem
          -94 callsubr
          endchar
        </CharString>
        <CharString name="e">
          -19 callsubr
          -106 callgsubr
          endchar
        </CharString>
        <CharString name="eacute">
          -97 callsubr
          -63 106 -78 callgsubr
        </CharString>
        <CharString name="ecircumflex">
          -97 callsubr
          118 106 -91 callsubr
        </CharString>
        <CharString name="edieresis">
          -19 callsubr
          74 102 -106 callgsubr
          135 185 -83 callgsubr
          endchar
        </CharString>
        <CharString name="egrave">
          -97 callsubr
          40 106 -79 callsubr
        </CharString>
        <CharString name="eight">
          102 -6 callsubr
          hstemhm
          60 88 -70 86 253 88 hintmask 11101000
          60 155 rmoveto
          -138 127 -32 95 108 115 56 119 81 -53 45 -64 34 vhcurveto
          35 29 66 61 77 vvcurveto
          96 -53 72 -152 vhcurveto
          hintmask 11011000
          -150 -56 -79 -85 -77 48 -46 61 -35 hvcurveto
          hintmask 11101000
          -49 -37 -78 -68 -73 vvcurveto
          222 -96 rmoveto
          -69 -65 17 79 66 50 49 43 35 hvcurveto
          87 -41 89 -31 -70 vvcurveto
          -44 -42 -60 -93 vhcurveto
          hintmask 11011000
          -118 441 rmoveto
          66 62 30 59 72 49 -32 -77 -35 -16 -64 -61 -40 vhcurveto
          -84 37 -81 34 81 vvcurveto
          endchar
        </CharString>
        <CharString name="eightinferior">
          -120 -116 53 302 49 hstem
          31 -18 rmoveto
          -78 79 -20 58 67 72 36 74 44 -29 28 -34 21 vhcurveto
          23 21 30 35 40 vvcurveto
          61 -42 44 -86 -84 -43 -49 -53 -45 26 -28 33 -21 vhcurveto
          -30 -23 -40 -38 -49 vvcurveto
          137 -45 rmoveto
          -34 -34 14 40 31 23 26 23 20 hvcurveto
          52 -23 40 -19 -31 vvcurveto
          -23 -21 -35 -49 vhcurveto
          -59 254 rmoveto
          33 31 15 30 37 25 -17 -39 -16 -8 -29 -30 -26 vhcurveto
          -43 20 -42 19 40 vvcurveto
          endchar
        </CharString>
        <CharString name="ellipsis">
          347 6 28 callsubr
          140 130 140 130 cntrmask 00111000
          220 9 callgsubr
          270 hmoveto
          -80 callsubr
          270 hmoveto
          10 callgsubr
        </CharString>
        <CharString name="emdash">
          268 224 4 callgsubr
          697 215 rmoveto
          9 16 5 13 24 vvcurveto
          17 -3 9 -3 9 vhcurveto
          hintmask 10000000
          -8 -46 -183 -6 -63 hhcurveto
          -131 -125 0 9 -123 hvcurveto
          -9 -16 -5 -14 callsubr
          hintmask 01100000
          -18 3 -10 3 -7 vhcurveto
          hintmask 10000000
          6 46 180 8 62 hhcurveto
          157 80 -1 -8 146 hvcurveto
          endchar
        </CharString>
        <CharString name="endash">
          39 224 4 callgsubr
          474 215 -52 callsubr
        </CharString>
        <CharString name="equal">
          195 45 callsubr
          214 65 14 -20 hstemhm
          hintmask 10010000
          507 386 -26 callsubr
          hintmask 10100000
          -76 callsubr
          -17 1 -9 2 -9 vhcurveto
          -56 callgsubr
          -200 vmoveto
          -49 callgsubr
        </CharString>
        <CharString name="eth">
          23 -7 callgsubr
          53 callgsubr
          55 82 212 82 vstem
          136 687 rmoveto
          -9 -11 -4 -14 -25 vvcurveto
          33 -12 29 -13 25 -15 rrcurveto
          -36 -21 -29 -15 0 vvcurveto
          -22 11 -15 10 -6 vhcurveto
          18 13 32 19 33 19 36 -32 27 -42 22 -60 rrcurveto
          31 -33 -36 12 -31 hhcurveto
          -133 -46 -51 callsubr
          167 21 133 128 128 -33 132 -99 91 hvcurveto
          40 22 34 17 0 vvcurveto
          -1 18 -9 20 -12 7 -15 -11 -36 -22 -37 -21 -36 25 -42 20 -49 15 rrcurveto
          107 -630 rmoveto
          -76 callgsubr
          endchar
        </CharString>
        <CharString name="exclam">
          -193 6 -21 689 -20 hstem
          90 130 vstem
          119 180 rmoveto
          -4 13 11 -2 11 hhcurveto
          10 10 2 4 13 hvcurveto
          -1 16 -1 23 26 vvcurveto
          124 11 214 9 85 vhcurveto
          4 -16 -16 2 -16 hhcurveto
          -19 -21 -3 -8 -22 hvcurveto
          19 -76 7 -141 -71 vvcurveto
          -72 -1 -70 -1 -53 vhcurveto
          101 -125 3 callgsubr
        </CharString>
        <CharString name="exclamdown">
          -193 -190 -21 689 -20 hstem
          50 130 vstem
          151 283 rmoveto
          4 -13 -11 2 -11 hhcurveto
          -10 -10 -2 -4 -13 hvcurveto
          1 -16 1 -23 -26 vvcurveto
          -124 -11 -214 49 callgsubr
          21 3 8 22 hvcurveto
          -19 76 -7 141 71 vvcurveto
          72 1 70 1 53 vhcurveto
          -101 125 rmoveto
          -32 11 -28 46 40 callsubr
          vhcurveto
          endchar
        </CharString>
        <CharString name="f">
          -132 17 -21 411 55 153 60 hstem
          93 502 rmoveto
          -11 0 -16 1 -13 vhcurveto
          -58 28 callgsubr
          17 20 0 20 hhcurveto
          -62 3 -53 -85 -53 callgsubr
          58 8 61 54 27 28 -21 -33 19 vhcurveto
          18 14 15 29 40 vvcurveto
          20 -29 -38 11 -36 hhcurveto
          -107 -32 -78 -95 hvcurveto
          endchar
        </CharString>
        <CharString name="fi">
          77 17 -21 413 53 6 -20 167 60 hstemhm
          93 80 182 114 hintmask 10111100
          450 256 rmoveto
          -37 callsubr
          -18 2 -27 hhcurveto
          hintmask 11011100
          -42 -52 -6 -143 hhcurveto
          -7 hlineto
          -1 11 0 12 11 vvcurveto
          58 7 61 44 22 22 -17 -27 16 vhcurveto
          18 14 15 29 40 vvcurveto
          14 -26 -34 7 -32 hhcurveto
          -96 -29 -78 -95 hvcurveto
          -40 -57 vlineto
          -21 callsubr
          14 19 1 21 hhcurveto
          2 -63 4 -51 -86 -57 callsubr
          10 -1 37 125 vvcurveto
          7 hlineto
          62 68 -1 -2 58 hvcurveto
          6 -51 4 -60 -59 -95 callgsubr
          19 357 rmoveto
          -34 -17 -28 -47 -41 -9 25 26 32 11 31 53 41 9 -24 -28 vhcurveto
          endchar
        </CharString>
        <CharString name="five">
          68 -15 64 283 63 179 65 9 -20 hstemhm
          394 87 hintmask 11101000
          251 395 rmoveto
          -9 -44 -4 -5 -28 hvcurveto
          1 37 2 53 15 97 rrcurveto
          26 29 0 1 43 hvcurveto
          33 111 -7 -7 25 hvcurveto
          5 16 3 13 24 vvcurveto
          hintmask 11011000
          51 callgsubr
          hintmask 11101000
          -5 -47 -57 -4 -68 hhcurveto
          -49 -67 2 5 -65 hvcurveto
          1 -15 0 -15 -14 vvcurveto
          -73 -7 -165 -20 -56 vhcurveto
          -3 8 15 -3 21 hhcurveto
          25 37 47 5 43 hhcurveto
          112 31 -85 -64 -64 -43 -70 -109 1 callgsubr
          93 105 103 -57 109 -173 hvcurveto
          endchar
        </CharString>
        <CharString name="fiveinferior">
          -93 -116 53 148 53 147 -20 hstem
          168 138 rmoveto
          -4 -20 -1 -2 -15 hvcurveto
          1 18 2 28 7 45 rrcurveto
          49 hlineto
          19 67 -5 -5 18 hvcurveto
          4 12 3 10 19 vvcurveto
          12 -2 8 -1 8 vhcurveto
          -2 -27 -41 -4 -39 hhcurveto
          -29 -48 3 3 -38 hvcurveto
          2 -18 0 -9 -8 vvcurveto
          -43 -6 -96 -13 -35 vhcurveto
          -4 10 15 -4 16 hhcurveto
          14 21 25 3 24 hhcurveto
          58 16 -44 -34 -34 -22 -36 -57 -29 -37 16 35 -24 hvcurveto
          -30 callsubr
          58 65 64 -35 67 -107 hvcurveto
          endchar
        </CharString>
        <CharString name="fl">
          58 17 -21 411 55 154 58 7 -20 hstemhm
          hintmask 11100000
          28 462 rmoveto
          -21 callsubr
          1 17 20 0 20 hhcurveto
          -71 3 -51 -78 -53 callgsubr
          92 30 28 47 35 45 -17 -18 47 vhcurveto
          6 -52 1 -60 -151 vvcurveto
          -143 -4 -82 -11 -95 vhcurveto
          -1 17 11 -1 5 callsubr
          -11 37 -7 131 188 vvcurveto
          160 2 51 13 107 vhcurveto
          hintmask 11010000
          1 -10 -9 0 -9 hhcurveto
          -25 -23 -4 -17 -25 hvcurveto
          hintmask 11100000
          9 -42 -37 5 -33 hhcurveto
          -100 -59 -47 -125 -11 0 -16 1 -13 hvcurveto
          endchar
        </CharString>
        <CharString name="florin">
          -27 -210 73 411 58 275 59 hstemhm
          126 88 -69 82 117 92 hintmask 11101100
          92 -210 rmoveto
          74 61 37 104 hvcurveto
          hintmask 11110100
          58 -8 147 -5 138 vhcurveto
          53 -1 54 -1 53 -3 rrcurveto
          -21 callgsubr
          -53 -4 -52 -2 -54 -1 rrcurveto
          -2 43 0 42 35 vvcurveto
          91 6 64 66 47 15 -42 -57 -8 0 -3 -1 -8 vhcurveto
          9 callsubr
          -27 81 -127 -103 -53 -56 -136 -42 2 -50 2 -51 vhcurveto
          -92 hlineto
          -20 callgsubr
          90 hlineto
          hintmask 11101100
          6 -94 6 -98 -80 vvcurveto
          -85 -5 -55 -52 -36 -32 16 19 -35 vhcurveto
          0 -18 -30 -43 -4 1 -5 -4 vvcurveto
          -13 36 48 -9 40 hhcurveto
          endchar
        </CharString>
        <CharString name="four">
          48 13 -21 150 65 442 -20 hstem
          321 140 vstem
          331 649 rmoveto
          -23 -26 -4 -6 -18 hvcurveto
          -71 -162 -77 -124 -106 -181 rrcurveto
          -19 0 -8 3 -9 vhcurveto
          3 26 151 3 35 hhcurveto
          31 31 0 -1 31 hvcurveto
          -2 -52 -4 -51 -5 -44 rrcurveto
          -2 17 11 0 5 callsubr
          -6 17 -4 54 -3 65 18 -1 17 -1 18 -3 rrcurveto
          -81 callgsubr
          -9 -3 -23 -2 -28 -2 rrcurveto
          -1 42 0 43 39 vvcurveto
          107 1 97 13 103 vhcurveto
          3 -39 -3 1 -37 hhcurveto
          -87 -442 rmoveto
          -48 -40 0 1 -38 hvcurveto
          53 112 85 174 57 85 rrcurveto
          8 -75 0 -78 -119 vvcurveto
          -31 0 -33 -1 -34 vhcurveto
          -1 -33 -29 -1 -14 hhcurveto
          endchar
        </CharString>
        <CharString name="fourinferior">
          -103 -91 -21 87 53 257 -20 hstem
          228 285 -100 callsubr
          endchar
        </CharString>
        <CharString name="fraction">
          426 -25 -21 734 -84 callsubr
          endchar
        </CharString>
        <CharString name="g">
          3 -210 55 124 77 -64 78 60 69 236 53 -2 -20 102 -20 hstemhm
          51 81 176 81 hintmask 1101101110000000
          220 478 rmoveto
          -130 -39 -75 -95 -60 10 -59 43 -35 hvcurveto
          -18 -27 -33 -59 -44 vvcurveto
          -40 38 -15 36 vhcurveto
          hintmask 1011101110000000
          65 53 13 54 hhcurveto
          30 23 -14 -35 -64 -69 -24 -64 -84 -18 34 23 9 1 10 1 4 hvcurveto
          2 -13 -14 2 -14 hhcurveto
          -17 -18 -2 -6 -16 hvcurveto
          -2 -11 0 -8 -8 vvcurveto
          -87 76 -17 103 109 116 44 125 67 -49 34 -67 vhcurveto
          hintmask 1101011110000000
          -50 -64 -14 -51 hhcurveto
          -11 -7 1 2 -11 hvcurveto
          5 21 10 31 16 29 rrcurveto
          -7 19 23 -3 28 hhcurveto
          142 27 92 96 51 -12 46 -31 31 hvcurveto
          4 -1 rlineto
          28 1 6 13 27 hhcurveto
          5 6 0 -1 7 hvcurveto
          3 16 3 20 19 vvcurveto
          9 -1 9 -1 8 vhcurveto
          1 -9 -8 65 callgsubr
          hintmask 1101101110000000
          -58 -16 -31 -49 hvcurveto
          -16 vlineto
          10 -23 -29 6 -35 hhcurveto
          -289 vmoveto
          -74 -14 64 57 68 22 47 66 66 22 -47 -68 -57 -14 -64 -74 hvcurveto
          endchar
        </CharString>
        <CharString name="germandbls">
          75 -15 64 -32 -21 619 60 hstemhm
          359 83 -17 87 hintmask 10101000
          326 49 rmoveto
          -29 -40 14 45 -27 hvcurveto
          0 -28 -33 -7 -41 vhcurveto
          -32 35 49 -17 45 hhcurveto
          156 32 106 82 144 -128 31 -52 11 hvcurveto
          hintmask 01110000
          56 18 54 48 95 vvcurveto
          99 -77 56 -101 -126 -44 -102 -111 -5 vhcurveto
          -61 hlineto
          -21 callsubr
          17 20 1 20 hhcurveto
          -62 3 -53 -85 -57 callsubr
          vvcurveto
          215 vlineto
          80 10 83 92 63 29 -50 -58 -84 -41 -34 -63 -13 vhcurveto
          -21 callsubr
          hintmask 10101000
          33 -7 133 6 -147 vvcurveto
          -64 -19 -60 -80 vhcurveto
          endchar
        </CharString>
        <CharString name="grave">
          -39 20 callsubr
          294 528 -79 callsubr
        </CharString>
        <CharString name="grave.case">
          -39 725 60 callsubr
          290 704 -77 callgsubr
          endchar
        </CharString>
        <CharString name="greater">
          109 -21 478 -20 hstem
          67 168 -44 callsubr
          11 callgsubr
          41 callgsubr
          rrcurveto
          -78 -41 -57 -29 -77 -31 rrcurveto
          endchar
        </CharString>
        <CharString name="greaterequal">
          4 45 callsubr
          616 6 callgsubr
          87 208 -44 callsubr
          rrcurveto
          hintmask 01100000
          11 callgsubr
          rrcurveto
          hintmask 10100000
          41 callgsubr
          -78 -41 -57 -29 -77 -31 rrcurveto
          420 -213 -45 callsubr
          endchar
        </CharString>
        <CharString name="guillemotleft">
          32 19 callsubr
          228 426 rmoveto
          -11 11 -12 -22 callgsubr
          12 10 11 11 -29 52 -10 14 -42 80 42 80 10 12 29 54 rrcurveto
          197 hmoveto
          -32 callsubr
        </CharString>
        <CharString name="guillemotright">
          32 19 callsubr
          267 426 rmoveto
          29 -54 10 -12 42 -80 -42 -80 -10 -14 -29 -52 11 -11 12 -22 callsubr
          -12 -8 -11 -11 rrcurveto
          -197 hmoveto
          -32 callgsubr
        </CharString>
        <CharString name="guilsinglleft">
          -165 19 callsubr
          228 426 rmoveto
          -32 callsubr
        </CharString>
        <CharString name="guilsinglright">
          -165 19 callsubr
          70 426 rmoveto
          -32 callgsubr
        </CharString>
        <CharString name="h">
          70 62 callsubr
          16 callgsubr
          85 -2 rmoveto
          -1 17 11 -1 5 callsubr
          -11 36 -7 125 181 vvcurveto
          44 44 39 22 37 hhcurveto
          53 20 -44 -114 -85 -4 -82 -8 -91 hvcurveto
          -2 12 12 0 11 hhcurveto
          26 24 4 9 23 hvcurveto
          -14 79 -6 75 90 27 1 32 22 vvcurveto
          99 -37 45 -82 -50 -61 -29 -42 -40 vhcurveto
          124 3 53 12 96 -16 callsubr
          endchar
        </CharString>
        <CharString name="hungarumlaut">
          385 20 callsubr
          146 528 rmoveto
          50 24 7 5 111 46 8 callsubr
          190 hmoveto
          50 25 7 3 111 47 8 callsubr
          endchar
        </CharString>
        <CharString name="hyphen">
          -109 217 -21 21 51 21 29 callsubr
          66 196 rmoveto
          43 10 51 2 128 9 rrcurveto
          4 16 2 13 11 vvcurveto
          15 -3 10 -3 7 vhcurveto
          -43 -10 -51 -2 -128 -9 rrcurveto
          -4 -16 -2 -13 -11 vvcurveto
          hintmask 10100000
          -15 3 -10 3 -7 vhcurveto
          endchar
        </CharString>
        <CharString name="i">
          -2 callgsubr
          103 114 hstem
          78 114 vstem
          -94 callsubr
          19 357 -28 callsubr
        </CharString>
        <CharString name="iacute">
          -2 callgsubr
          234 -20 hstem
          84 528 -84 callgsubr
          89 -272 -99 callsubr
          endchar
        </CharString>
        <CharString name="icircumflex">
          -2 callgsubr
          234 -20 hstem
          -94 callsubr
          77 272 -91 callsubr
        </CharString>
        <CharString name="idieresis">
          -2 callgsubr
          104 102 hstem
          9 103 47 103 vstem
          -94 callsubr
          -61 351 -101 callsubr
        </CharString>
        <CharString name="igrave">
          -2 callgsubr
          234 -20 hstem
          -94 callsubr
          25 272 -79 callsubr
        </CharString>
        <CharString name="infinity">
          311 121 77 242 80 hstem
          228 520 rmoveto
          -96 -82 -52 -147 -146 89 -54 85 85 45 52 66 35 hvcurveto
          -45 16 40 -73 101 hhcurveto
          96 82 52 147 146 -89 54 -85 -85 -46 -52 -66 -35 hvcurveto
          45 -16 -40 73 -100 hhcurveto
          331 -80 rmoveto
          66 40 -62 -59 -72 -42 -49 -67 -73 -35 42 65 -28 hvcurveto
          73 33 34 62 72 hhcurveto
          -344 -239 rmoveto
          -66 -40 62 59 72 42 49 67 73 34 -42 -65 28 hvcurveto
          -74 -33 -33 -61 -72 hhcurveto
          endchar
        </CharString>
        <CharString name="integral">
          -63 -210 73 712 73 hstemhm
          140 81 -43 81 hintmask 11100000
          221 506 rmoveto
          44 20 25 31 34 33 -17 -36 39 vhcurveto
          11 14 11 26 26 vvcurveto
          7 0 8 -3 7 vhcurveto
          30 -44 -41 8 -45 hhcurveto
          -69 -58 -33 -91 hvcurveto
          hintmask 11010000
          -139 38 -298 -155 vvcurveto
          -44 -20 -25 -31 -34 -33 17 36 -39 vhcurveto
          -11 -14 -10 -26 -25 vvcurveto
          -8 0 -8 2 -7 vhcurveto
          -30 44 41 -8 45 hhcurveto
          69 58 33 91 hvcurveto
          hintmask 11100000
          59 -38 396 137 vvcurveto
          endchar
        </CharString>
        <CharString name="j">
          -209 -210 74 604 -20 103 114 hstem
          80 114 vstem
          178 -13 rmoveto
          157 -3 0 112 vvcurveto
          -72 callgsubr
          12 -61 6 -87 -83 vvcurveto
          -223 vlineto
          -53 -3 -87 -53 -28 -31 20 21 -14 vhcurveto
          -18 -14 -15 -29 -40 vvcurveto
          -20 28 38 -12 37 hhcurveto
          117 18 106 91 hvcurveto
          16 626 -28 callsubr
        </CharString>
        <CharString name="k">
          13 12 -21 26 -21 473 -20 233 -20 hstemhm
          hintmask 01110000
          78 -2 rmoveto
          -1 17 11 -1 -42 callsubr
          104 229 rmoveto
          hintmask 10110000
          89 -100 32 -49 32 -87 rrcurveto
          40 53 11 14 28 hvcurveto
          -46 47 -53 65 -89 128 65 78 78 81 23 38 rrcurveto
          41 callsubr
          -10 -58 -102 -132 -34 -40 rrcurveto
          endchar
        </CharString>
        <CharString name="l">
          -210 17 -21 686 -20 hstem
          78 -2 rmoveto
          -2 17 11 0 -42 callsubr
          endchar
        </CharString>
        <CharString name="less">
          109 -21 478 -20 hstem
          478 168 -68 callsubr
          endchar
        </CharString>
        <CharString name="lessequal">
          4 45 callsubr
          616 6 callgsubr
          498 208 -68 callsubr
          9 -213 rmoveto
          -49 callgsubr
        </CharString>
        <CharString name="logicalnot">
          185 -21 131 65 14 6 callgsubr
          446 286 rmoveto
          -25 0 -48 -8 -42 vhcurveto
          -5 15 11 -2 22 hhcurveto
          15 8 1 2 9 hvcurveto
          -7 25 -4 50 33 vvcurveto
          29 0 27 4 43 vhcurveto
          hintmask 11000000
          -76 callsubr
          -17 1 -9 2 -9 vhcurveto
          -34 callgsubr
          53 38 -1 -8 82 hvcurveto
          endchar
        </CharString>
        <CharString name="lozenge">
          136 -189 -21 862 -20 hstem
          454 221 rmoveto
          -50 -119 -46 -128 -61 -113 rrcurveto
          -11 hlineto
          -63 118 -40 126 -49 116 49 116 40 126 63 118 rrcurveto
          11 hlineto
          61 -113 46 -128 50 -119 rrcurveto
          85 hmoveto
          -71 181 -75 158 -22 82 rrcurveto
          7 -21 -26 3 -17 hhcurveto
          -37 -21 -3 -7 -21 hvcurveto
          -22 -82 -75 -158 -71 -181 71 -181 75 -158 22 -82 rrcurveto
          -7 21 21 -3 37 hhcurveto
          17 26 3 7 21 hvcurveto
          22 82 75 158 71 181 rrcurveto
          endchar
        </CharString>
        <CharString name="lslash">
          -211 17 -21 686 -20 hstem
          77 -2 rmoveto
          -2 17 11 0 54 callgsubr
          31 -6 101 -2 146 77 26 rcurveline
          37 callgsubr
          -21 -12 -23 -10 -33 -12 rrcurveto
          14 vlineto
          160 2 51 13 107 18 callgsubr
          -220 vvcurveto
          -72 -24 34 callsubr
          20 11 21 9 31 12 -1 -108 -5 -71 -9 -81 rrcurveto
          endchar
        </CharString>
        <CharString name="m">
          300 62 callsubr
          -10 52 callsubr
          671 253 rmoveto
          27 1 33 22 vvcurveto
          95 -32 48 -77 -46 -59 -29 -48 -41 vhcurveto
          46 -12 -32 31 -59 hhcurveto
          -46 -53 -28 -37 -36 hvcurveto
          51 vlineto
          hintmask 10100000
          -71 callgsubr
          hintmask 11000000
          45 40 -23 callsubr
          26 1 33 36 vvcurveto
          47 41 -23 callsubr
          vvcurveto
          endchar
        </CharString>
        <CharString name="macron">
          4 575 57 -44 -21 74 29 callsubr
          352 571 rmoveto
          4 13 1 11 19 vvcurveto
          13 -1 7 -1 7 vhcurveto
          hintmask 10000000
          -4 -15 -71 -5 -21 hhcurveto
          -41 -53 0 4 -40 hvcurveto
          -3 -12 -1 -11 -19 vvcurveto
          hintmask 01100000
          -14 0 -6 1 -7 vhcurveto
          hintmask 10000000
          4 16 70 4 21 hhcurveto
          50 37 0 -4 47 hvcurveto
          endchar
        </CharString>
        <CharString name="minus">
          295 4 callgsubr
          507 286 -26 callsubr
          hintmask 10000000
          -76 callsubr
          hintmask 01100000
          -50 callgsubr
          hintmask 10000000
          -31 callgsubr
        </CharString>
        <CharString name="mu">
          22 -167 -21 182 63 -41 42 callsubr
          21 -20 hstemhm
          hintmask 11001000
          331 -99 callgsubr
          -61 callgsubr
          hintmask 10110000
          -65 callsubr
          vvcurveto
          -124 -11 -183 49 callgsubr
          16 3 8 22 hvcurveto
          -14 56 -8 75 -3 64 rrcurveto
          -15 17 23 -8 30 hhcurveto
          49 26 12 38 46 hvcurveto
          endchar
        </CharString>
        <CharString name="multiply">
          146 -21 405 -20 hstem
          104 465 rmoveto
          49 -41 52 -48 49 -49 -49 -48 -59 -57 -42 -32 8 -15 7 -11 17 -17 12 -12 8 -5 7 -5 13 22 95 104 29 30 30 -30 94 -104 14 -22 7 5 8 5 12 12 rrcurveto
          17 17 7 11 8 15 -42 32 -60 57 -49 48 50 49 51 48 50 41 -8 15 -7 11 -17 17 -12 12 -8 5 -7 5 -14 -22 -94 -105 -30 -30 -29 30 -95 105 -13 22 rrcurveto
          -7 -5 -8 -5 -12 -12 -17 -17 -7 -11 -8 -15 rrcurveto
          endchar
        </CharString>
        <CharString name="n">
          70 62 callsubr
          -10 6 callgsubr
          179 464 rmoveto
          -71 callgsubr
          hintmask 11000000
          -43 callgsubr
          endchar
        </CharString>
        <CharString name="nine">
          86 -15 60 197 61 287 65 hstemhm
          55 85 -72 89 249 83 hintmask 11110100
          260 -15 rmoveto
          203 26 205 141 208 -48 116 -167 -126 -93 -90 -121 -131 93 -71 99 54 65 18 53 40 hvcurveto
          -199 -61 -69 -83 vhcurveto
          hintmask 11101100
          -67 -38 46 69 7 0 5 1 7 hvcurveto
          2 -11 -13 0 -11 hhcurveto
          -21 -15 -3 -5 -16 hvcurveto
          -2 -9 -1 -7 -8 vvcurveto
          -89 2 55 -75 135 hhcurveto
          142 459 rmoveto
          -98 -71 -43 -69 vhcurveto
          hintmask 11110100
          38 callsubr
          hvcurveto
          endchar
        </CharString>
        <CharString name="nineinferior">
          -107 -116 51 98 51 151 53 hstem
          44 -5 rmoveto
          -61 36 -50 84 125 17 124 91 123 -30 66 -104 -78 -58 -55 -75 -80 58 -45 63 27 33 9 28 24 vhcurveto
          -107 -37 -28 -41 -33 -19 27 36 vhcurveto
          4 -11 -10 0 -8 hhcurveto
          -14 -11 -3 -4 -13 hvcurveto
          194 163 rmoveto
          -50 -37 -24 -35 -32 -31 23 50 52 37 26 33 39 26 -25 -52 vhcurveto
          endchar
        </CharString>
        <CharString name="notequal">
          -25 -21 241 65 134 66 228 -20 hstem
          187 -44 rmoveto
          28 78 29 81 32 80 rrcurveto
          86 64 -1 -8 81 hvcurveto
          31 callsubr
          -26 -122 -7 -35 hhcurveto
          -26 hlineto
          18 45 18 45 19 44 50 -1 46 -2 54 -5 33 callgsubr
          -17 -5 -59 -5 -48 -2 32 72 32 70 34 66 rrcurveto
          13 -21 -18 5 -23 hhcurveto
          -9 -12 -1 -1 -9 hvcurveto
          -27 -74 -28 -76 -30 -76 rrcurveto
          -69 -82 1 8 -63 -50 callsubr
          -34 callgsubr
          9 hlineto
          -18 -45 -18 -45 -19 -45 -46 1 -48 3 -39 5 rrcurveto
          -60 callsubr
          15 4 48 4 45 3 -34 -76 -34 -74 -34 -69 25 callgsubr
        </CharString>
        <CharString name="ntilde">
          70 62 callsubr
          -10 -20 96 66 45 callgsubr
          hintmask 10110100
          179 464 rmoveto
          -71 callgsubr
          hintmask 11001000
          -43 callgsubr
          47 230 -48 callsubr
          hintmask 11010100
          -57 callgsubr
          hintmask 11001000
          25 callsubr
        </CharString>
        <CharString name="numbersign">
          300 -25 -21 191 78 191 74 200 -20 hstem
          497 -44 rmoveto
          9 64 9 66 11 65 40 -1 40 -2 44 22 callgsubr
          -48 -3 -52 -3 12 67 13 66 13 64 41 -1 40 -2 45 22 callgsubr
          -47 -3 -51 -3 14 61 14 60 16 57 13 callgsubr
          -67 rrcurveto
          -1 -30 -25 0 -15 hhcurveto
          -136 hlineto
          14 63 15 61 16 58 13 callgsubr
          -66 -44 1 -42 10 callsubr
          49 4 51 2 -12 -66 -13 -66 -13 -65 -44 1 -43 10 callsubr
          47 4 51 2 -14 -61 -14 -59 -15 -56 35 callgsubr
          9 64 9 66 11 66 rrcurveto
          1 30 25 1 15 hhcurveto
          49 44 0 -1 42 hvcurveto
          -14 -62 -15 -61 -15 -57 35 callgsubr
          -201 465 rmoveto
          1 31 26 1 15 hhcurveto
          49 45 0 -1 43 hvcurveto
          -12 -68 -13 -67 -14 -67 rrcurveto
          -1 -30 -26 0 -15 hhcurveto
          -138 hlineto
          12 68 13 68 14 66 rrcurveto
          endchar
        </CharString>
        <CharString name="o">
          3 -7 callgsubr
          -97 callgsubr
          endchar
        </CharString>
        <CharString name="oacute">
          -80 callgsubr
          -52 471 -78 callgsubr
        </CharString>
        <CharString name="ocircumflex">
          -80 callgsubr
          114 471 -91 callsubr
        </CharString>
        <CharString name="odieresis">
          3 -7 callgsubr
          74 102 -97 callgsubr
          -24 550 -101 callsubr
        </CharString>
        <CharString name="oe">
          281 -15 72 -52 -21 238 58 142 56 hstemhm
          45 82 212 81 188 84 hintmask 10111110
          -73 callsubr
          73 45 29 50 28 hvcurveto
          hintmask 01111110
          -51 28 46 -29 72 hhcurveto
          64 56 23 33 49 -27 callgsubr
          hintmask 10111110
          -34 -37 -40 -28 -47 hhcurveto
          -94 -16 82 66 -3 hvcurveto
          1 7 0 8 7 vvcurveto
          -4 30 30 -1 30 hhcurveto
          -66 callsubr
          -71 -47 -33 -48 -30 hvcurveto
          52 -29 -47 29 -75 hhcurveto
          -77 callsubr
          292 365 -75 callsubr
          75 6 23 62 75 hhcurveto
          endchar
        </CharString>
        <CharString name="ogonek">
          -143 -210 54 177 -20 hstem
          189 21 rmoveto
          -89 -25 -50 -59 -58 vvcurveto
          -48 36 -41 70 40 44 14 29 30 vhcurveto
          33 -6 13 -10 16 vhcurveto
          -37 -27 -33 -14 -31 hhcurveto
          -28 -14 17 24 39 37 56 70 23 hvcurveto
          endchar
        </CharString>
        <CharString name="ograve">
          -80 callgsubr
          52 471 -79 callsubr
        </CharString>
        <CharString name="one">
          -88 13 -21 655 -20 22 52 callsubr
          217 648 rmoveto
          -68 -39 -75 -43 -64 -26 6 -31 20 -27 20 -22 16 16 65 44 50 33 rrcurveto
          6 -66 0 -79 -101 -67 callsubr
          -70 callgsubr
          104 1 105 13 100 vhcurveto
          hintmask 10100000
          -14 -11 2 -9 hhcurveto
          -13 -9 0 -1 -9 hvcurveto
          endchar
        </CharString>
        <CharString name="onehalf">
          426 -25 -21 389 52 258 -20 55 -20 hstem
          315 -96 callgsubr
          328 439 -94 callgsubr
          -431 258 -90 callsubr
        </CharString>
        <CharString name="oneinferior">
          -198 -91 -21 400 -20 hstem
          150 288 -90 callsubr
        </CharString>
        <CharString name="onequarter">
          59 callgsubr
          518 -20 55 -20 hstem
          326 -96 callgsubr
          355 436 -100 callsubr
          -353 518 -90 callsubr
        </CharString>
        <CharString name="onesuperior">
          -178 319 -21 400 -20 hstem
          155 698 -90 callsubr
        </CharString>
        <CharString name="ordfeminine">
          -136 59 callsubr
          85 36 88 39 hstemhm
          hintmask 01111000
          148 546 rmoveto
          -51 -47 -19 -67 -52 24 -35 52 24 28 12 19 21 hvcurveto
          2 -23 rlineto
          -2 8 10 -1 5 hhcurveto
          14 16 2 5 13 hvcurveto
          -9 57 -3 33 30 33 3 26 26 vvcurveto
          56 -40 27 -54 -50 -56 -22 -56 -4 0 -5 1 -5 vhcurveto
          -4 10 15 -2 22 3 8 1 3 hhcurveto
          -1 7 0 2 5 vvcurveto
          33 17 11 23 37 9 -28 -35 -10 -1 -16 -1 -11 vhcurveto
          8 -17 -21 4 -17 hhcurveto
          50 -97 rmoveto
          -13 -11 -24 -11 -21 hhcurveto
          -27 -9 18 25 31 20 11 22 18 20 -6 -11 15 hvcurveto
          -13 -2 -18 -1 -13 vhcurveto
          -149 -187 rmoveto
          hintmask 10111000
          -25 callsubr
          hintmask 01111000
          -13 44 callsubr
          endchar
        </CharString>
        <CharString name="ordmasculine">
          -132 59 callsubr
          205 43 hstemhm
          hintmask 01110000
          165 673 rmoveto
          -89 -26 -65 -82 -82 20 -71 95 96 20 71 82 82 -26 65 -90 hvcurveto
          -248 vmoveto
          -48 -9 50 51 62 14 42 43 43 14 -42 -62 -51 -9 -50 -48 hvcurveto
          -111 -163 rmoveto
          hintmask 10110000
          -25 callsubr
          hintmask 01110000
          -13 44 callsubr
          endchar
        </CharString>
        <CharString name="oslash">
          3 -60 -21 66 -1 callsubr
          65 -20 hstem
          7 callgsubr
          vstem
          155 -79 rmoveto
          22 70 rlineto
          -4 17 18 -2 21 hhcurveto
          157 31 116 136 91 -20 78 -57 41 hvcurveto
          12 27 11 27 12 26 rrcurveto
          12 -16 -14 4 -17 hhcurveto
          -7 -9 -1 -1 -6 hvcurveto
          -22 -69 rlineto
          4 -17 -18 2 -20 hhcurveto
          -145 -43 -106 -135 -94 14 -85 62 -43 hvcurveto
          -34 -80 rlineto
          -12 15 18 -4 16 hhcurveto
          6 6 1 1 7 hvcurveto
          -28 316 rmoveto
          109 27 76 79 13 12 -3 -4 11 vhcurveto
          -36 -106 -39 -108 -40 -103 rrcurveto
          -21 35 -6 51 53 vvcurveto
          106 -180 rmoveto
          -12 -11 1 3 -9 hvcurveto
          35 105 38 106 40 101 rrcurveto
          17 -33 8 -47 -56 vvcurveto
          -92 -18 -88 -88 vhcurveto
          endchar
        </CharString>
        <CharString name="otilde">
          3 -7 callgsubr
          66 66 45 callgsubr
          7 callgsubr
          hintmask 11010110
          -101 callgsubr
          -40 586 -48 callsubr
          hintmask 11101110
          -57 callgsubr
          hintmask 11010110
          25 callsubr
        </CharString>
        <CharString name="p">
          33 49 callsubr
          357 64 -12 -20 hstemhm
          361 85 hintmask 11101000
          158 80 -17 callgsubr
          -88 -288 57 callgsubr
          25 -19 callgsubr
          -50 -54 -29 -36 -38 hvcurveto
          2 52 rlineto
          hintmask 11011000
          1 -9 -8 0 -9 hhcurveto
          -26 -24 -3 -7 -22 hvcurveto
          17 -107 1 -46 -126 vvcurveto
          -96 0 -198 -15 -91 vhcurveto
          endchar
        </CharString>
        <CharString name="paragraph">
          49 13 -21 283 67 256 57 hstem
          75 87 vstem
          484 617 rmoveto
          23 -47 -58 15 -86 hhcurveto
          -165 -53 -83 -107 -97 59 -93 145 14 16 1 4 16 hvcurveto
          -2 -117 -6 -131 -9 -30 rrcurveto
          -7 23 21 -3 25 hhcurveto
          9 11 0 2 17 hvcurveto
          -11 92 -3 125 96 vvcurveto
          120 0 74 8 70 vhcurveto
          22 -9 19 -11 14 -10 rrcurveto
          7 6 14 30 40 vvcurveto
          -159 -259 rmoveto
          -9 -15 -20 -7 -25 hhcurveto
          -81 -22 74 53 71 30 58 102 hvcurveto
          7 7 -1 7 hhcurveto
          8 -81 2 -73 -85 vvcurveto
          endchar
        </CharString>
        <CharString name="parenleft">
          57 callsubr
          65 82 vstem
          279 719 rmoveto
          9 -28 -18 5 -29 hhcurveto
          -4 -7 0 -1 -7 hvcurveto
          -78 -116 -43 -126 -161 vvcurveto
          -160 43 -126 78 -116 vhcurveto
          -1 7 7 0 4 hhcurveto
          29 18 5 9 28 hvcurveto
          -98 129 -34 130 130 vvcurveto
          130 34 130 98 130 vhcurveto
          endchar
        </CharString>
        <CharString name="parenright">
          57 callsubr
          162 82 vstem
          30 719 rmoveto
          98 -130 34 -130 -130 vvcurveto
          -130 -34 -130 -98 -129 vhcurveto
          -9 28 18 -5 29 hhcurveto
          4 7 0 1 7 hvcurveto
          78 116 43 126 160 vvcurveto
          161 -43 126 -78 116 vhcurveto
          1 -7 -7 0 -4 hhcurveto
          -29 -18 -5 -9 -28 hvcurveto
          endchar
        </CharString>
        <CharString name="partialdiff">
          23 -7 callgsubr
          53 callgsubr
          43 87 225 90 vstem
          206 687 rmoveto
          -11 -11 -6 -14 -4 -25 103 -38 56 -47 23 -117 rrcurveto
          31 -28 -35 12 -31 hhcurveto
          -162 -68 -158 -173 -94 36 -68 123 209 34 220 146 146 -58 135 -181 55 hvcurveto
          8 -630 rmoveto
          -64 -20 47 61 144 53 113 89 60 23 -44 -70 -109 -35 -142 -106 hvcurveto
          endchar
        </CharString>
        <CharString name="percent">
          426 -86 callgsubr
          endchar
        </CharString>
        <CharString name="period">
          -193 6 28 callsubr
          vstem
          220 9 callgsubr
          endchar
        </CharString>
        <CharString name="periodcentered">
          -193 204 28 callsubr
          vstem
          220 253 rmoveto
          10 callgsubr
        </CharString>
        <CharString name="perthousand">
          760 -86 callgsubr
          1063 -258 -41 callgsubr
        </CharString>
        <CharString name="pi">
          158 17 -21 407 65 14 6 callgsubr
          486 256 rmoveto
          47 4 49 4 46 vhcurveto
          22 -1 22 -1 24 -2 rrcurveto
          6 -69 callsubr
          -3 9 vhcurveto
          hintmask 11000000
          -7 -31 -148 -7 -43 hhcurveto
          -89 -111 0 9 -85 hvcurveto
          -6 -16 -3 23 callgsubr
          12 3 31 2 36 3 rrcurveto
          5 -49 4 -56 -56 -12 callgsubr
          48 4 51 4 47 vhcurveto
          1 22 19 0 12 hhcurveto
          46 41 0 -1 39 hvcurveto
          6 -50 4 -58 -58 -12 callgsubr
          endchar
        </CharString>
        <CharString name="plus">
          135 -21 181 65 181 -20 hstem
          259 534 rmoveto
          6 -62 2 -53 1 -59 rrcurveto
          -60 -63 2 7 -51 -50 callsubr
          25 6 113 7 40 1 -1 -40 -7 -113 -6 -25 rrcurveto
          -2 9 9 -1 17 hhcurveto
          24 13 2 5 16 hvcurveto
          -7 51 -2 63 60 vvcurveto
          59 -1 53 -2 62 -6 rrcurveto
          31 callsubr
          -25 -113 -7 -40 hhcurveto
          40 7 113 7 25 vhcurveto
          2 -9 -9 1 -17 hhcurveto
          -24 -13 -2 -5 -16 hvcurveto
          endchar
        </CharString>
        <CharString name="plusminus">
          4 45 callsubr
          345 65 181 -20 hstemhm
          hintmask 10110000
          259 574 rmoveto
          6 -62 2 -53 1 -59 rrcurveto
          -60 -63 2 7 -51 -50 callsubr
          25 6 113 7 40 1 -1 -40 -7 -113 -6 -25 rrcurveto
          -2 9 9 -1 17 hhcurveto
          24 13 2 5 16 hvcurveto
          -7 51 -2 63 60 vvcurveto
          59 -1 53 -2 62 -6 rrcurveto
          31 callsubr
          -25 -113 -7 -40 hhcurveto
          40 7 113 7 25 vhcurveto
          2 -9 -9 1 -17 hhcurveto
          -24 -13 -2 -5 -16 hvcurveto
          248 -579 -53 callsubr
          hintmask 01110000
          -50 callgsubr
          hintmask 10110000
          -31 callgsubr
        </CharString>
        <CharString name="product">
          288 -189 -21 777 72 14 -20 hstemhm
          70 166 275 170 hintmask 10111000
          670 24 callgsubr
          hintmask 11011000
          56 callsubr
          -130 0 9 -99 hvcurveto
          -7 -17 -4 -13 -26 vvcurveto
          -17 2 -10 3 -9 vhcurveto
          13 2 30 3 36 2 rrcurveto
          6 -94 1 -149 -111 vvcurveto
          -96 -3 -229 -9 callgsubr
          -2 17 11 0 -47 callsubr
          278 -5 callgsubr
          80 0 149 5 98 vhcurveto
          2 40 36 1 19 hhcurveto
          61 54 -1 -1 52 hvcurveto
          7 -93 1 -153 -113 vvcurveto
          -96 -3 -229 -9 callgsubr
          -2 17 11 0 -47 callsubr
          278 -5 callgsubr
          79 0 148 5 98 vhcurveto
          26 -1 25 -1 28 -2 rrcurveto
          endchar
        </CharString>
        <CharString name="q">
          35 49 callsubr
          365 56 hstem
          50 85 vstem
          424 452 rmoveto
          18 -75 -53 8 -45 hhcurveto
          -139 -62 -85 -188 -143 55 -77 86 46 54 25 43 45 hvcurveto
          -85 -5 -94 -10 -82 vhcurveto
          -1 7 9 -1 18 hhcurveto
          35 19 3 7 18 hvcurveto
          -16 92 -2 35 219 vvcurveto
          147 3 56 12 103 vhcurveto
          -289 -252 rmoveto
          157 35 65 74 23 40 -8 -15 29 vhcurveto
          -277 vlineto
          -40 -36 -44 -25 -36 hhcurveto
          -54 -31 43 100 hvcurveto
          endchar
        </CharString>
        <CharString name="question">
          -4 6 -21 630 58 hstemhm
          163 130 -53 91 0 83 hintmask 11010000
          206 171 rmoveto
          33 3 16 16 13 16 rrcurveto
          -20 23 -8 29 25 vvcurveto
          hintmask 11101000
          95 174 22 130 vvcurveto
          85 -86 58 -101 -36 -58 -7 -16 -37 vhcurveto
          -4 -1 -3 -4 vvcurveto
          -24 9 -22 11 -18 vhcurveto
          31 42 35 9 37 hhcurveto
          60 42 -32 -47 -57 -56 -37 -45 -45 hvcurveto
          -40 -40 -18 -35 -39 vvcurveto
          -32 12 -36 22 -44 vhcurveto
          87 -116 3 callgsubr
        </CharString>
        <CharString name="questiondown">
          -36 -210 58 630 -20 hstemhm
          41 83 0 91 -53 130 hintmask 11101000
          249 292 rmoveto
          -33 -3 -16 -16 -13 -16 rrcurveto
          20 -23 8 -29 -25 -95 -174 -22 -130 vvcurveto
          -85 86 -58 101 36 58 7 16 37 vhcurveto
          4 1 3 4 vvcurveto
          24 -9 22 -11 18 vhcurveto
          -31 -42 -35 -9 -37 hhcurveto
          -60 -42 32 47 57 56 37 45 45 hvcurveto
          40 40 18 35 39 vvcurveto
          32 -12 36 -22 44 vhcurveto
          -87 116 rmoveto
          -32 11 -28 46 vhcurveto
          hintmask 11010000
          40 callsubr
          hvcurveto
          endchar
        </CharString>
        <CharString name="quotedbl">
          -112 -41 callsubr
          140 hmoveto
          -59 callsubr
          endchar
        </CharString>
        <CharString name="quotedblbase">
          -1 -152 30 callgsubr
          86 135 46 54 callsubr
          85 -152 -67 callgsubr
        </CharString>
        <CharString name="quotedblleft">
          -21 436 -21 218 49 hstem
          60 135 46 -42 callgsubr
          181 hmoveto
          -63 callgsubr
          endchar
        </CharString>
        <CharString name="quotedblright">
          -21 415 30 callgsubr
          66 135 46 54 callsubr
          65 415 -67 callgsubr
        </CharString>
        <CharString name="quoteleft">
          -202 436 -21 218 49 hstem
          60 -42 callgsubr
          endchar
        </CharString>
        <CharString name="quoteright">
          -202 415 30 callgsubr
          66 54 callsubr
          65 415 -66 callgsubr
        </CharString>
        <CharString name="quotesinglbase">
          -182 -152 30 callgsubr
          86 54 callsubr
          85 -152 -66 callgsubr
        </CharString>
        <CharString name="quotesingle">
          -252 -41 callsubr
          endchar
        </CharString>
        <CharString name="r">
          -116 17 -21 406 71 -5 6 callgsubr
          159 464 rmoveto
          3 -10 -11 1 -11 hhcurveto
          -23 -24 -5 -5 -20 hvcurveto
          12 -72 8 -68 -82 -60 callgsubr
          -1 10 13 -1 -82 callgsubr
          32 0 33 2 32 vhcurveto
          hintmask 11000000
          28 23 29 21 14 hhcurveto
          40 0 -43 -12 -6 -1 -7 36 callgsubr
          -2 13 13 -2 13 hhcurveto
          14 14 2 7 14 hvcurveto
          2 12 0 8 9 vvcurveto
          59 -24 54 -49 -33 -46 -26 -35 -31 vhcurveto
          endchar
        </CharString>
        <CharString name="radical">
          9 -21 490 -20 325 -20 hstem
          460 776 rmoveto
          -47 -200 -83 -318 -58 -193 rrcurveto
          -4 hlineto
          -51 153 -36 148 -18 -74 callgsubr
          55 -131 62 -213 33 -119 rrcurveto
          -7 20 19 -3 36 hhcurveto
          36 19 3 7 20 hvcurveto
          31 172 90 359 68 181 rrcurveto
          28 44 -2 -7 62 hvcurveto
          7 17 4 17 16 vvcurveto
          11 -2 11 -3 10 vhcurveto
          -5 -28 -27 -4 -54 hhcurveto
          -44 -39 0 2 -24 hvcurveto
          endchar
        </CharString>
        <CharString name="registered">
          153 212 44 212 -20 184 86 -44 44 hstemhm
          60 148 48 102 54 144 hintmask 11011110
          274 434 rmoveto
          8 -3 -2 0 6 -1 27 -42 23 -39 25 -53 rrcurveto
          38 17 6 6 12 hvcurveto
          -27 36 -32 48 -27 41 rrcurveto
          46 13 24 41 44 vvcurveto
          61 -27 40 -86 -26 -53 -6 -9 -22 vhcurveto
          9 -48 1 -39 -73 44 callgsubr
          3 hhcurveto
          14 12 1 6 16 hvcurveto
          -6 62 callgsubr
          39 0 37 3 37 vhcurveto
          5 13 16 2 11 hhcurveto
          45 14 -27 -35 -31 -17 -32 -31 -8 -8 2 4 -9 hvcurveto
          -4 -4 -7 -15 -21 vvcurveto
          282 34 rmoveto
          hintmask 11101110
          -16 callgsubr
          -225 206 -13 callsubr
          endchar
        </CharString>
        <CharString name="ring">
          -77 527 37 92 37 hstem
          110 164 vstem
          274 611 34 callgsubr
          65 24 37 47 vhcurveto
          -4 callsubr
        </CharString>
        <CharString name="ring.case">
          -77 527 37 82 37 hstem
          105 174 vstem
          279 606 -33 callsubr
        </CharString>
        <CharString name="s">
          -60 -15 67 373 53 -68 callgsubr
          endchar
        </CharString>
        <CharString name="scaron">
          -60 -15 67 373 53 194 -20 -68 callgsubr
          -275 546 -62 callgsubr
        </CharString>
        <CharString name="section">
          17 -210 74 732 59 hstemhm
          48 86 206 92 -75 88 hintmask 11101000
          48 246 rmoveto
          -212 309 44 -130 vvcurveto
          -44 -28 -40 -82 -61 -61 26 55 -40 vhcurveto
          29 callgsubr
          72 -28 89 hhcurveto
          101 97 36 119 59 -24 38 -34 28 hvcurveto
          35 24 23 38 58 215 -311 -59 154 vvcurveto
          66 43 30 52 vhcurveto
          hintmask 11110000
          67 44 4 callsubr
          -46 callsubr
          -56 21 -38 32 -28 vhcurveto
          -38 -31 -15 -45 -47 vvcurveto
          86 9 rmoveto
          34 11 24 18 16 vhcurveto
          hintmask 11101000
          88 -44 106 -16 -76 vvcurveto
          -32 -15 -30 -39 -14 vhcurveto
          -82 34 -87 22 82 vvcurveto
          endchar
        </CharString>
        <CharString name="semicolon">
          -192 -152 49 581 -20 hstem
          87 54 callsubr
          217 418 -55 callgsubr
          -131 -570 -66 callgsubr
        </CharString>
        <CharString name="seven">
          -17 13 -21 582 65 14 6 callgsubr
          95 -4 rmoveto
          -2 12 17 -2 18 hhcurveto
          26 9 3 7 20 hvcurveto
          21 162 112 272 99 182 rrcurveto
          51 callgsubr
          hintmask 11000000
          -7 -27 -129 -7 -37 hhcurveto
          -78 -56 -12 callsubr
          -17 2 61 callsubr
          27 129 7 37 hhcurveto
          38 26 0 -1 25 hvcurveto
          -73 -188 -81 -213 -53 -176 rrcurveto
          endchar
        </CharString>
        <CharString name="seveninferior">
          -151 -91 -21 401 -20 hstem
          71 -99 rmoveto
          -8 9 16 -5 11 hhcurveto
          17 10 2 6 13 hvcurveto
          12 96 64 157 59 108 rrcurveto
          15 -2 9 -2 8 vhcurveto
          -4 -20 -77 -6 -21 hhcurveto
          -46 -33 0 7 -49 hvcurveto
          -4 -14 -3 -10 -16 vvcurveto
          -10 2 -10 2 -10 vhcurveto
          5 20 78 5 21 hhcurveto
          41 hlineto
          -41 -107 -48 -120 -29 -98 rrcurveto
          endchar
        </CharString>
        <CharString name="six">
          86 -15 65 287 61 197 60 hstemhm
          60 87 235 89 -62 85 hintmask 11110100
          284 36 callsubr
          -199 -25 -205 -151 -204 48 -110 167 126 93 90 121 131 -93 71 -99 -54 -65 -18 -53 -40 hvcurveto
          169 59 99 79 vhcurveto
          hintmask 11111000
          65 36 -46 -69 30 callsubr
          hvcurveto
          -2 11 13 0 11 hhcurveto
          21 15 64 callgsubr
          2 9 1 7 8 vvcurveto
          89 -2 -54 75 -131 hhcurveto
          hintmask 11110100
          125 -464 rmoveto
          -98 -71 -43 -69 38 callsubr
          vhcurveto
          endchar
        </CharString>
        <CharString name="sixinferior">
          -107 -116 53 151 52 98 50 hstem
          292 184 rmoveto
          55 -1 -34 49 -82 hhcurveto
          -123 -16 -123 -91 -123 30 -67 103 79 58 55 76 80 -58 45 -62 -28 -30 -9 -29 -26 hvcurveto
          73 26 63 45 34 16 -28 -28 vhcurveto
          -5 16 7 0 8 hhcurveto
          14 12 3 4 12 hvcurveto
          -53 -172 rmoveto
          -51 -37 -24 -35 -32 -30 23 50 52 35 26 34 39 26 -25 -51 vhcurveto
          endchar
        </CharString>
        <CharString name="slash">
          103 -25 -21 734 -20 hstem
          187 -44 rmoveto
          86 241 103 257 109 216 rrcurveto
          13 -21 -18 5 -23 hhcurveto
          -9 -12 -1 -1 -9 hvcurveto
          -85 -237 -105 -260 -107 -216 25 callgsubr
        </CharString>
        <CharString name="space">
          -233 endchar
        </CharString>
        <CharString name="sterling">
          83 2 45 callsubr
          286 57 271 64 hstemhm
          112 88 -88 103 186 82 hintmask 01111010
          61 23 rmoveto
          -17 2 -29 callsubr
          hintmask 10110110
          7 27 149 7 37 hhcurveto
          78 56 0 -9 74 hvcurveto
          -81 callgsubr
          -7 -27 -129 -7 -37 hhcurveto
          -95 hlineto
          9 56 4 49 45 vvcurveto
          19 -1 20 -1 18 vhcurveto
          61 60 -2 -3 60 hvcurveto
          -21 callgsubr
          -60 -5 -60 -2 -62 -1 rrcurveto
          hintmask 10111010
          -4 51 -5 50 56 vvcurveto
          48 17 66 83 77 24 -42 14 callsubr
          vhcurveto
          -1 5 12 -1 12 hhcurveto
          17 17 2 7 17 hvcurveto
          2 9 1 8 8 vvcurveto
          96 -42 76 -141 -111 -77 -56 -119 -50 8 -54 7 -56 vhcurveto
          -69 hlineto
          -20 callgsubr
          70 hlineto
          2 -20 1 -20 -20 vvcurveto
          -47 -5 -48 -16 -48 vhcurveto
          endchar
        </CharString>
        <CharString name="summation">
          111 -197 79 -72 -21 781 69 14 -20 hstemhm
          hintmask 10010000
          530 24 callgsubr
          hintmask 10100000
          56 callsubr
          -15 0 9 -99 hvcurveto
          -4 -13 -1 -12 -13 vvcurveto
          94 -141 84 -121 72 -127 -72 -127 -84 -121 -94 -141 rrcurveto
          1 -21 6 -15 0 vvcurveto
          6 57 178 1 32 hhcurveto
          hintmask 01100000
          37 151 -7 -45 callgsubr
          22 -18 callgsubr
          10 -5 16 vhcurveto
          51 callsubr
          hintmask 10100000
          -20 -115 1 3 -63 hvcurveto
          207 308 rlineto
          6 9 2 15 6 vvcurveto
          7 -2 16 -6 8 vhcurveto
          -213 319 rlineto
          23 hlineto
          125 92 -1 -8 117 hvcurveto
          endchar
        </CharString>
        <CharString name="t">
          -156 -15 74 348 55 82 -20 hstem
          75 162 rmoveto
          -91 8 -86 117 37 33 10 14 32 vhcurveto
          43 -7 18 -14 20 vhcurveto
          -21 -27 -29 -10 -28 hhcurveto
          -42 -4 42 44 hvcurveto
          203 vlineto
          20 0 19 2 20 vhcurveto
          39 -1 40 -1 38 -2 -25 callgsubr
          -37 -3 -36 -2 -38 -1 9 77 rcurveline
          2 -9 46 callgsubr
          60 callgsubr
          -74 rlineto
          -61 28 callgsubr
          18 21 0 21 hhcurveto
          1 -8 0 -8 -7 -75 -2 -47 -101 vvcurveto
          endchar
        </CharString>
        <CharString name="thorn">
          31 49 callsubr
          357 64 16 callgsubr
          354 85 vstem
          60 -208 57 callgsubr
          28 -19 callgsubr
          -44 -47 -20 -48 -54 hvcurveto
          122 3 53 12 95 -30 callgsubr
          -207 -3 -160 -17 -159 vhcurveto
          91 288 -17 callgsubr
          endchar
        </CharString>
        <CharString name="three">
          66 -15 64 243 66 238 59 hstemhm
          55 82 236 83 -64 87 hintmask 11110100
          240 49 rmoveto
          1 callgsubr
          83 105 71 -34 58 -79 30 hvcurveto
          hintmask 11111000
          63 26 27 55 67 vvcurveto
          119 -97 56 -101 47 callgsubr
          vhcurveto
          -9 callsubr
          32 -71 -48 -63 -40 -56 -73 -18 -42 1 6 -20 vhcurveto
          -7 -12 -3 -14 -12 vvcurveto
          -13 3 -12 2 -7 vhcurveto
          -2 15 17 -1 18 hhcurveto
          28 29 2 2 28 hvcurveto
          hintmask 11110100
          63 -22 19 -55 -46 vvcurveto
          -64 -43 -60 -109 vhcurveto
          endchar
        </CharString>
        <CharString name="threeinferior">
          -93 -116 53 299 52 hstem
          178 288 -98 callgsubr
        </CharString>
        <CharString name="threequarters">
          59 callgsubr
          114 53 169 -20 150 52 35 -84 callsubr
          325 436 -100 callsubr
          -355 518 -98 callgsubr
        </CharString>
        <CharString name="threesuperior">
          -93 294 53 125 -20 194 52 hstem
          178 698 -98 callgsubr
        </CharString>
        <CharString name="tilde">
          45 544 66 -52 -21 40 33 45 callgsubr
          hintmask 01101000
          214 643 -48 callsubr
          hintmask 10001000
          -57 callgsubr
          hintmask 01010000
          25 callsubr
        </CharString>
        <CharString name="tilde.case">
          45 704 66 -33 66 hstemhm
          hintmask 10000000
          290 704 -48 callgsubr
          hintmask 01000000
          -54 callsubr
          hhcurveto
          hintmask 10000000
          26 callgsubr
        </CharString>
        <CharString name="trademark">
          218 399 -21 335 -20 hstem
          306 383 rmoveto
          -4 7 8 -1 8 hhcurveto
          12 13 3 4 10 hvcurveto
          -7 20 -3 86 62 vvcurveto
          28 vlineto
          23 -43 26 -47 23 -54 rrcurveto
          -2 13 3 0 3 hhcurveto
          11 8 2 2 7 hvcurveto
          11 26 46 105 14 23 rrcurveto
          -41 vlineto
          -49 -1 -72 -7 -51 vhcurveto
          -2 17 4 0 4 hhcurveto
          14 13 1 6 14 hvcurveto
          -6 62 callgsubr
          50 0 48 8 57 vhcurveto
          2 -13 -6 0 -4 hhcurveto
          -17 -8 -1 -7 -15 hvcurveto
          -9 -41 -36 -84 -37 -74 -40 74 -45 86 -9 45 rrcurveto
          2 -13 -4 0 -4 hhcurveto
          -8 -12 -1 -7 -14 hvcurveto
          9 -50 0 -43 -72 vvcurveto
          -47 -1 -62 -6 -45 vhcurveto
          -36 273 rmoveto
          3 12 2 9 13 vvcurveto
          9 -2 8 -2 6 vhcurveto
          -4 -16 -64 -4 -18 hhcurveto
          -37 -45 0 6 -43 hvcurveto
          -3 -12 -2 -9 -13 vvcurveto
          -9 2 -8 2 -6 vhcurveto
          13 3 47 4 24 1 rrcurveto
          3 -33 0 -41 -51 44 callgsubr
          4 hhcurveto
          13 12 1 6 17 hvcurveto
          -7 62 callgsubr
          36 0 37 2 36 vhcurveto
          29 -1 27 -2 30 -3 rrcurveto
          endchar
        </CharString>
        <CharString name="two">
          75 3 45 callsubr
          607 59 hstemhm
          64 82 231 88 hintmask 01111000
          267 36 callsubr
          47 callgsubr
          hvcurveto
          -9 callsubr
          27 -71 -48 -140 -229 -136 -98 -177 vhcurveto
          -18 1 -8 3 -9 vhcurveto
          hintmask 10111000
          6 27 149 8 37 hhcurveto
          78 56 0 -9 74 hvcurveto
          -81 callgsubr
          -8 -27 -129 -6 -37 hhcurveto
          -43 -36 0 1 -33 hvcurveto
          94 132 197 137 142 vvcurveto
          119 -97 56 -101 vhcurveto
          endchar
        </CharString>
        <CharString name="twoinferior">
          -114 -94 -21 351 52 hstem
          171 288 -94 callgsubr
          endchar
        </CharString>
        <CharString name="twosuperior">
          -114 316 -21 351 52 hstem
          171 698 -94 callgsubr
          endchar
        </CharString>
        <CharString name="u">
          -23 callgsubr
          hstemhm
          hintmask 01010000
          336 -99 callgsubr
          hintmask 10100000
          -92 callsubr
          endchar
        </CharString>
        <CharString name="uacute">
          -98 callsubr
          -138 483 -78 callgsubr
        </CharString>
        <CharString name="ucircumflex">
          -98 callsubr
          28 483 -91 callsubr
        </CharString>
        <CharString name="udieresis">
          -23 callgsubr
          104 102 hstemhm
          hintmask 10101000
          336 -99 callgsubr
          -92 callsubr
          hintmask 01011000
          40 562 -83 callgsubr
          endchar
        </CharString>
        <CharString name="ugrave">
          -98 callsubr
          -35 483 -79 callsubr
        </CharString>
        <CharString name="underscore">
          39 -80 4 callgsubr
          474 -89 -52 callsubr
        </CharString>
        <CharString name="v">
          -10 14 -21 476 -20 hstem
          259 hmoveto
          29 114 120 282 -87 callsubr
          -1 7 7 0 6 hhcurveto
          21 18 3 4 15 hvcurveto
          endchar
        </CharString>
        <CharString name="w">
          183 14 -21 474 -20 21 -20 21 52 callsubr
          517 467 rmoveto
          -4 -99 -42 -175 -38 -82 rrcurveto
          -4 hlineto
          -28 104 -18 107 -11 92 rrcurveto
          2 -12 -12 1 -12 hhcurveto
          -19 -19 -3 -4 -17 hvcurveto
          -8 -85 -36 -147 -30 -67 rrcurveto
          -4 hlineto
          hintmask 10100000
          -36 123 -33 123 -6 111 rrcurveto
          hintmask 10010000
          -69 callgsubr
          57 -131 66 -208 25 -119 33 callsubr
          13 56 37 128 32 97 rrcurveto
          4 hlineto
          31 -118 24 -92 11 -77 33 callsubr
          29 114 110 282 23 56 rrcurveto
          hintmask 10100000
          13 -28 -20 3 -21 hhcurveto
          hintmask 11000000
          -11 -12 -1 -13 hhcurveto
          endchar
        </CharString>
        <CharString name="x">
          -52 11 -21 479 -20 hstem
          385 453 rmoveto
          41 callsubr
          -3 -38 -7 -23 -18 -38 -12 -25 -13 -24 -13 -22 -19 39 -22 43 -40 89 rrcurveto
          1 -9 -8 0 -9 hhcurveto
          -30 -30 -5 -16 -22 hvcurveto
          52 -75 43 -74 47 -71 -70 -93 -54 -75 -30 -49 rrcurveto
          -16 26 24 -5 23 hhcurveto
          10 6 0 2 13 hvcurveto
          3 26 5 20 13 27 16 33 22 36 24 41 27 -46 28 -49 37 -89 rrcurveto
          -1 9 9 0 8 hhcurveto
          31 28 5 16 23 hvcurveto
          -57 77 -45 76 -50 74 61 92 52 82 24 41 rrcurveto
          endchar
        </CharString>
        <CharString name="y">
          -22 50 callsubr
          hstem
          258 -91 callgsubr
          endchar
        </CharString>
        <CharString name="yacute">
          -20 50 callsubr
          233 -20 hstem
          257 -91 callgsubr
          -72 528 -78 callgsubr
        </CharString>
        <CharString name="ydieresis">
          -22 50 callsubr
          103 102 hstem
          112 103 47 103 vstem
          258 -91 callgsubr
          -43 607 -101 callsubr
        </CharString>
        <CharString name="yen">
          31 13 -21 203 57 93 56 250 -20 hstem
          455 197 rmoveto
          37 callsubr
          -1 -20 -21 0 -23 hhcurveto
          -23 -23 0 1 -24 hvcurveto
          10 27 12 31 13 32 37 -1 35 -1 31 -2 rrcurveto
          -21 callgsubr
          -23 -2 -24 -1 -27 -1 44 100 46 98 14 31 -78 callsubr
          33 -67 44 -84 40 -82 rrcurveto
          -76 hlineto
          -20 callgsubr
          97 hlineto
          15 -32 13 -30 11 -29 -51 1 -49 2 -40 2 rrcurveto
          39 callgsubr
          44 3 56 2 58 1 -2 -70 -4 -72 -7 -59 rrcurveto
          -2 17 11 0 5 callsubr
          -13 59 -2 79 56 vvcurveto
          1 56 54 0 47 hhcurveto
          endchar
        </CharString>
        <CharString name="z">
          -38 2 72 -60 -21 404 67 7 6 callgsubr
          40 27 callgsubr
          hintmask 01100000
          12 callsubr
          hintmask 10100000
          -58 -17 -54 -1 -54 -1 rrcurveto
          -5 callsubr
          hintmask 10010000
          -56 -59 -38 callsubr
          hintmask 10100000
          15 56 52 4 52 hhcurveto
          68 hlineto
          -85 -127 -88 -115 -79 -123 rrcurveto
          endchar
        </CharString>
        <CharString name="zcaron">
          -63 2 72 -60 -21 404 67 208 -20 hstemhm
          hintmask 10110000
          15 27 callgsubr
          hintmask 01110000
          12 callsubr
          hintmask 10110000
          -17 -58 -54 -2 -54 hhcurveto
          -5 callsubr
          -56 -59 -38 callsubr
          15 56 52 4 52 hhcurveto
          68 hlineto
          -85 -127 -88 -115 -79 -123 rrcurveto
          65 640 -62 callgsubr
        </CharString>
        <CharString name="zero">
          124 -15 65 540 65 hstem
          60 85 297 85 vstem
          527 320 rmoveto
          184 -54 151 -180 -179 -54 -151 -184 -184 54 -151 179 180 54 151 184 vhcurveto
          -382 hmoveto
          161 41 109 107 108 41 -109 -161 -161 -41 -109 -108 -107 -41 109 161 vhcurveto
          endchar
        </CharString>
        <CharString name="zeroinferior">
          -86 -116 53 298 53 hstem
          337 86 -41 callgsubr
        </CharString>
      <CharString index="0">
        242 66 callgsubr
        57 48 0 -3 49 hvcurveto
        15 -62 15 -63 14 -63 rrcurveto
        -2 15 10 0 -27 callsubr
        22 3 7 25 hvcurveto
        -95 callsubr
        -6 23 21 -4 21 hhcurveto
        8 9 0 callgsubr
        14 63 15 62 15 62 rrcurveto
        3 38 37 1 18 hhcurveto
        37 397 rmoveto
        39 -111 32 -109 28 -110 rrcurveto
        -1 -32 -30 -1 -15 hhcurveto
        -42 -47 0 1 -46 hvcurveto
        29 111 34 110 44 110 rrcurveto
        return
      </CharString>
      <CharString index="1">
        hstem
        45 82 188 84 vstem
        218 222 rmoveto
        -66 callsubr
        -149 -45 14 callgsubr
        36 -113 151 68 54 23 32 -20 callsubr
        -34 -37 -40 -28 -47 hhcurveto
        -103 -9 101 69 -1 hvcurveto
        -4 30 31 -1 30 hhcurveto
        14 200 -75 callsubr
        70 6 23 67 75 hhcurveto
        return
      </CharString>
      <CharString index="2">
        -1 10 8 callgsubr
        21 22 3 6 20 hvcurveto
        -13 88 -4 56 54 61 4 42 41 vvcurveto
        92 -65 41 -86 -44 callgsubr
        vhcurveto
        -93 callgsubr
        return
      </CharString>
      <CharString index="3">
        27 -81 callsubr
        -20 -18 0 1 -21 hvcurveto
        72 0 77 6 57 vhcurveto
        3 35 38 0 24 -88 callsubr
        -32 return
      </CharString>
      <CharString index="4">
        -47 callgsubr
        204 -20 6 callsubr
        hintmask 10111100
        -103 callsubr
        hintmask 01111010
        -105 callgsubr
        return
      </CharString>
      <CharString index="5">
        104 32 94 92 50 -16 31 -43 -61 -15 -30 -42 -25 10 -22 28 -2 hvcurveto
        16 -2 10 -8 -18 vvcurveto
        -41 -19 -28 -48 vhcurveto
        -2 -10 -1 -8 -6 vvcurveto
        -12 3 -7 2 -6 vhcurveto
        return
      </CharString>
      <CharString index="6">
        -73 callsubr
        157 31 116 136 135 -43 106 -145 hvcurveto
        -77 callsubr
        return
      </CharString>
      <CharString index="7">
        300 -104 callsubr
        return
      </CharString>
      <CharString index="8">
        -4 rmoveto
        -1 10 43 callsubr
        23 21 3 6 20 hvcurveto
        -12 72 -6 70 82 vvcurveto
        73 3 55 12 109 vhcurveto
        2 -9 -12 2 -14 hhcurveto
        -22 -26 -4 -6 -23 hvcurveto
        13 -62 5 -85 -104 vvcurveto
        -30 0 -29 -2 -30 vhcurveto
        return
      </CharString>
      <CharString index="9">
        -85 callgsubr
        16 -34 -25 -32 -19 -39 -40 -6 -23 0 6 -17 vhcurveto
        -6 -9 -2 -10 -10 vvcurveto
        -6 1 -6 1 -6 vhcurveto
        -2 13 14 -1 8 hhcurveto
        17 16 0 1 15 hvcurveto
        30 -12 10 -28 -22 vvcurveto
        -34 -22 -30 -57 -29 -37 16 35 -24 vhcurveto
        -30 callsubr
        53 64 40 -18 33 -38 20 hvcurveto
        29 18 13 30 37 35 callsubr
      </CharString>
      <CharString index="10">
        hstem
        7 callgsubr
        vstem
        -101 callgsubr
        return
      </CharString>
      <CharString index="11">
        -44 rmoveto
        74 241 87 257 94 216 rrcurveto
        13 -18 -16 5 -19 hhcurveto
        -8 -10 -1 36 callgsubr
        -73 -237 -89 -260 -92 43 callgsubr
        17 21 -5 19 hhcurveto
        6 7 1 1 8 hvcurveto
        return
      </CharString>
      <CharString index="12">
        -60 callgsubr
        -2 12 11 0 -82 callgsubr
        return
      </CharString>
      <CharString index="13">
        -85 callgsubr
        14 -34 -25 -43 -43 -46 -46 -48 vhcurveto
        -37 -39 -30 -29 -34 -55 rrcurveto
        -11 2 -11 2 -10 vhcurveto
        4 21 89 6 20 hhcurveto
        46 33 0 -7 49 hvcurveto
        4 9 3 14 17 vvcurveto
        10 -3 10 -4 11 vhcurveto
        -7 -21 -75 -4 -20 hhcurveto
        -50 hlineto
        17 22 20 20 20 21 rrcurveto
        52 54 53 55 59 -2 callsubr
        return
      </CharString>
      <CharString index="14">
        -5 16 18 -3 20 hhcurveto
        10 11 1 1 11 hvcurveto
        6 -1 5 6 vvcurveto
        49 22 32 52 83 1 -76 -62 -2 0 -15 -1 -20 vhcurveto
        return
      </CharString>
      <CharString index="15">
        rmoveto
        57 9 68 20 57 17 rrcurveto
        1 6 0 6 6 vvcurveto
        29 -11 20 -19 21 vhcurveto
        -51 -39 -40 -15 -77 -41 2 -21 6 -9 7 55 callgsubr
      </CharString>
      <CharString index="16">
        hmoveto
        37 112 116 284 -87 callsubr
        -68 -23 -44 -62 -32 hhcurveto
        -34 -26 23 18 -13 hvcurveto
        -34 -30 2 -39 -1 -14 rrcurveto
        -26 39 38 -6 28 hhcurveto
        72 49 64 146 49 hvcurveto
        return
      </CharString>
      <CharString index="17">
        rmoveto
        7 9 6 8 3 21 -60 37 -40 25 -43 41 -45 -45 -40 -20 -65 -37 3 -21 6 -9 6 -9 43 11 46 20 46 21 40 -21 48 -19 39 67 callgsubr
      </CharString>
      <CharString index="18">
        -596 vmoveto
        -35 callsubr
        -39 callsubr
        121 46 -111 -159 -134 -26 -133 -141 hvcurveto
        return
      </CharString>
      <CharString index="19">
        306 184 rmoveto
        -9 -2 -33 -3 -38 vhcurveto
        -24 -20 -43 -23 -39 hhcurveto
        -37 callgsubr
        34 37 -13 -22 26 hvcurveto
        return
      </CharString>
      <CharString index="20">
        -20 hstem
        106 -6 rmoveto
        -70 callgsubr
        107 1 99 -65 callgsubr
        -90 -64 callgsubr
        return
      </CharString>
      <CharString index="21">
        -25 -21 37 53 205 53 40 53 205 53 35 -84 callsubr
        483 237 -96 callsubr
        -271 258 -96 callsubr
        return
      </CharString>
      <CharString index="22">
        rmoveto
        -64 -62 -34 -67 -8 1 -8 2 -9 hvcurveto
        -9 14 13 65 callsubr
        9 11 2 2 6 hvcurveto
        -1 5 0 5 5 vvcurveto
        49 31 15 30 42 return
      </CharString>
      <CharString index="23">
        rmoveto
        58 24 7 4 119 47 -1 40 -13 17 -26 22 -56 -48 -33 -18 -75 -51 5 -19 7 -9 8 -9 rrcurveto
        return
      </CharString>
      <CharString index="24">
        rmoveto
        -93 callsubr
        -150 hmoveto
        -89 callsubr
        return
      </CharString>
      <CharString index="25">
        11 hhcurveto
        24 23 3 7 25 hvcurveto
        -13 62 -5 100 88 vvcurveto
        return
      </CharString>
      <CharString index="26">
        5 -69 callsubr
        -2 9 vhcurveto
        return
      </CharString>
      <CharString index="27">
        3 -7 callgsubr
        204 -20 -97 callgsubr
        return
      </CharString>
      <CharString index="28">
        -8 callsubr
        216 -105 callsubr
        return
      </CharString>
      <CharString index="29">
        -84 callgsubr
        endchar
      </CharString>
      <CharString index="30">
        rmoveto
        7 9 6 8 3 21 -71 40 -43 22 -49 41 rrcurveto
        -25 -27 -8 -13 -46 vvcurveto
        56 -20 67 -23 57 -12 rrcurveto
        return
      </CharString>
      <CharString index="31">
        -88 -18 88 92 109 27 76 79 79 27 -76 -109 -92 -18 -88 -88 hvcurveto
        return
      </CharString>
      <CharString index="32">
        123 -8 -74 callgsubr
        return
      </CharString>
      <CharString index="33">
        111 rrcurveto
        -69 callgsubr
        return
      </CharString>
      <CharString index="34">
        rlineto
        3 21 8 1 19 hhcurveto
        23 22 -7 -23 -29 -20 -10 -23 -24 -28 11 9 -10 hvcurveto
        -7 -11 -6 -18 -15 vvcurveto
        -3 0 -4 1 -3 vhcurveto
        -7 17 28 -5 29 hhcurveto
        68 43 22 64 45 -30 22 -71 3 hvcurveto
        -2 return
      </CharString>
      <CharString index="35">
        -37 callsubr
        46 callgsubr
        hhcurveto
        -23 -25 -3 -7 -24 hvcurveto
        return
      </CharString>
      <CharString index="36">
        3 -10 -11 1 -11 hhcurveto
        -23 -24 -5 -5 -20 hvcurveto
        12 -72 8 -68 -82 -95 callgsubr
        31 0 32 2 31 vhcurveto
        return
      </CharString>
      <CharString index="37">
        -2 17 11 0 -47 callsubr
        174 -5 callgsubr
        return
      </CharString>
      <CharString index="38">
        1 -11 -14 0 -12 hhcurveto
        -31 -29 -9 -8 -19 hvcurveto
        return
      </CharString>
      <CharString index="39">
        hstem
        270 91 vstem
        361 126 rmoveto
        151 -238 -35 123 vvcurveto
        41 36 19 41 47 23 -33 -39 -7 -1 -8 -1 -7 vhcurveto
        -3 14 10 -3 19 hhcurveto
        16 15 3 5 14 hvcurveto
        100 -46 45 -100 -121 -45 -57 -77 vhcurveto
        -157 238 26 -107 vvcurveto
        -32 -33 -22 -47 -38 -47 18 56 -39 vhcurveto
        0 -37 -37 -9 -49 vhcurveto
        -35 46 63 -20 59 hhcurveto
        84 77 41 100 hvcurveto
        return
      </CharString>
      <CharString index="40">
        -36 callsubr
        181 hmoveto
        -86 callsubr
      </CharString>
      <CharString index="41">
        rmoveto
        -86 callsubr
      </CharString>
      <CharString index="42">
        13 103 vhcurveto
        -74 callsubr
        16 -90 1 return
      </CharString>
      <CharString index="43">
        -152 -67 callsubr
        return
      </CharString>
      <CharString index="44">
        -104 -32 -94 -92 -50 16 -31 43 61 15 30 42 25 -10 22 -28 2 hvcurveto
        -16 2 -10 8 18 vvcurveto
        41 19 28 48 vhcurveto
        2 10 1 8 6 vvcurveto
        12 -3 7 -2 6 vhcurveto
        return
      </CharString>
      <CharString index="45">
        rmoveto
        -8 -9 -7 -9 -5 -19 60 -51 27 -18 47 -48 47 48 27 18 60 51 -4 19 -8 9 -8 9 -41 -23 -11 -7 -62 -33 -62 33 -10 7 -42 23 rrcurveto
        endchar
      </CharString>
      <CharString index="46">
        -45 -45 -33 -16 -35 hhcurveto
        -60 -8 67 88 65 3 77 12 110 hvcurveto
        return
      </CharString>
      <CharString index="47">
        vvcurveto
        -59 -3 -70 -12 -109 vhcurveto
        return
      </CharString>
      <CharString index="48">
        -3 -7 -18 hvcurveto
        return
      </CharString>
      <CharString index="49">
        13 24 vvcurveto
        17 -2 9 return
      </CharString>
      <CharString index="50">
        36 26 -33 39 hhcurveto
        47 42 41 32 16 hvcurveto
        -4 12 -10 12 -20 9 rrcurveto
        -29 -18 -13 -11 -19 hhcurveto
        return
      </CharString>
      <CharString index="51">
        -34 callgsubr
        88 64 -1 -8 82 hvcurveto
        return
      </CharString>
      <CharString index="52">
        rmoveto
        -80 callsubr
        return
      </CharString>
      <CharString index="53">
        1 -14 -11 1 -9 hhcurveto
        return
      </CharString>
      <CharString index="54">
        -57 callsubr
        10 -1 37 123 vvcurveto
        41 -1 42 -1 39 -2 -25 callgsubr
        -41 -4 -42 -1 -42 -1 rrcurveto
        -1 11 0 11 11 vvcurveto
        return
      </CharString>
      <CharString index="55">
        -5 -16 -2 -14 callsubr
        return
      </CharString>
      <CharString index="56">
        -175 -43 -82 rrcurveto
        -4 hlineto
        -51 123 return
      </CharString>
      <CharString index="57">
        -17 1 -29 callsubr
        return
      </CharString>
      <CharString index="58">
        5 16 2 13 24 vvcurveto
        17 -1 9 -2 9 vhcurveto
        -76 callsubr
        hintmask 01100000
        -50 callgsubr
        hintmask 10100000
        -31 callgsubr
      </CharString>
      <CharString index="59">
        rmoveto
        47 43 35 31 18 hvcurveto
        -3 13 -12 12 -17 7 rrcurveto
        -28 -16 -19 -4 -19 hhcurveto
        return
      </CharString>
      <CharString index="60">
        10 -15 72 -42 -21 225 52 151 56 return
      </CharString>
      <CharString index="61">
        -48 callgsubr
        hintmask 11010000
        -54 callsubr
        hhcurveto
        hintmask 11100000
        26 callgsubr
      </CharString>
      <CharString index="62">
        -7 27 hvcurveto
        2 9 2 return
      </CharString>
      <CharString index="63">
        -101 -70 -38 -87 -7 1 -8 1 -8 return
      </CharString>
      <CharString index="64">
        45 45 37 19 36 hhcurveto
        64 9 -62 callsubr
        27 1 32 22 vvcurveto
        96 -35 48 -84 -49 -57 -28 -37 -39 vhcurveto
        return
      </CharString>
      <CharString index="65">
        54 callsubr
        196 682 rmoveto
        -63 callgsubr
        return
      </CharString>
      <CharString index="66">
        -96 callsubr
        endchar
      </CharString>
      <CharString index="67">
        -20 10 -21 660 -20 hstem
        97 -4 rmoveto
        6 57 68 -11 callsubr
        -54 53 callsubr
        return
      </CharString>
      <CharString index="68">
        1 6 -57 hvcurveto
        14 -87 5 -176 -73 vvcurveto
        return
      </CharString>
      <CharString index="69">
        -81 -93 -57 -79 hhcurveto
        -29 -25 3 30 -23 hvcurveto
        -11 -29 -3 -22 -25 vvcurveto
        -21 28 31 -6 31 hhcurveto
        return
      </CharString>
      <CharString index="70">
        -53 -18 33 49 59 38 21 43 return
      </CharString>
      <CharString index="71">
        -81 -77 -40 -106 -83 38 -57 83 return
      </CharString>
      <CharString index="72">
        -6 rmoveto
        -31 callsubr
        return
      </CharString>
      <CharString index="73">
        7 26 122 7 35 hhcurveto
        return
      </CharString>
      <CharString index="74">
        -34 callsubr
        174 -5 callgsubr
        107 1 99 13 103 vhcurveto
        return
      </CharString>
      <CharString index="75">
        30 -54 9 -12 42 -80 -42 -80 -9 -14 -30 -52 12 -11 11 -22 callsubr
        -11 -8 -12 -11 rrcurveto
        endchar
      </CharString>
      <CharString index="76">
        -56 callgsubr
        endchar
      </CharString>
      <CharString index="77">
        18 callgsubr
        -224 vvcurveto
        return
      </CharString>
      <CharString index="78">
        -8 49 -29 30 0 vvcurveto
        return
      </CharString>
      <CharString index="79">
        -3 callsubr
        hintmask 10100000
        -38 callgsubr
        return
      </CharString>
      <CharString index="80">
        hvcurveto
        -29 callgsubr
        return
      </CharString>
      <CharString index="81">
        9 -2 9 vhcurveto
        return
      </CharString>
      <CharString index="82">
        rrcurveto
        2 11 2 12 11 vvcurveto
        12 -2 11 -4 9 vhcurveto
        return
      </CharString>
      <CharString index="83">
        51 callsubr
        -19 -63 0 3 -46 hvcurveto
        77 139 147 252 -18 callsubr
        -78 -1 -54 hhcurveto
        return
      </CharString>
      <CharString index="84">
        39 -15 72 -42 -21 473 -20 21 -20 return
      </CharString>
      <CharString index="85">
        8 -25 7 -65 -77 -23 -35 -62 -60 62 -60 23 -35 65 -77 25 5 return
      </CharString>
      <CharString index="86">
        3 11 1 12 12 vvcurveto
        13 -2 12 -5 10 vhcurveto
        return
      </CharString>
      <CharString index="87">
        -2 -8 -1 -8 -6 vvcurveto
        -15 4 -11 4 -8 vhcurveto
        return
      </CharString>
      <CharString index="88">
        0 10 22 hvcurveto
        -15 73 -1 102 -1 34 rrcurveto
        -16 35 35 -8 25 hhcurveto
        158 34 143 110 111 -25 129 -116 return
      </CharString>
      <CharString index="89">
        17 vvcurveto
        24 -3 return
      </CharString>
      <CharString index="90">
        rmoveto
        90 0 96 2 83 vhcurveto
        33 27 47 32 42 hhcurveto
        79 6 -92 -71 -78 -13 -116 -96 -26 -30 8 15 -38 hvcurveto
        return
      </CharString>
      <CharString index="91">
        169 -60 81 -168 -222 -46 -122 -135 -157 60 -92 168 197 71 111 145 vhcurveto
        return
      </CharString>
      <CharString index="92">
        rmoveto
        -4 50 -3 92 77 vvcurveto
        return
      </CharString>
      <CharString index="93">
        hvcurveto
        -52 callgsubr
        return
      </CharString>
      <CharString index="94">
        -22 59 75 -6 62 hhcurveto
        221 42 174 166 166 -58 164 -205 -89 -55 -10 -18 -55 hvcurveto
        return
      </CharString>
      <CharString index="95">
        -60 callgsubr
        -1 11 12 -1 -82 callgsubr
        return
      </CharString>
      <CharString index="96">
        64 callgsubr
        1 8 1 8 7 vvcurveto
        return
      </CharString>
      <CharString index="97">
        -7 -8 -14 -33 -40 vvcurveto
        -10 26 28 -5 25 hhcurveto
        145 59 98 116 123 -53 83 -165 return
      </CharString>
      <CharString index="98">
        -11 -92 vhcurveto
        return
      </CharString>
      <CharString index="99">
        -1 callsubr
        hstem
        45 82 170 87 vstem
        229 478 rmoveto
        -141 -43 -113 -118 return
      </CharString>
      <CharString index="100">
        -15 -1 callsubr
        return
      </CharString>
      <CharString index="101">
        -8 0 -5 -1 -8 return
      </CharString>
      <CharString index="102">
        127 vvcurveto
        return
      </CharString>
      <CharString index="103">
        hhcurveto
        37 109 -82 callsubr
        -8 -47 return
      </CharString>
      <CharString index="104">
        -1 9 16 0 8 hhcurveto
        28 23 4 5 20 hvcurveto
        return
      </CharString>
      <CharString index="105">
        -200 17 42 callsubr
        return
      </CharString>
      <CharString index="106">
        -5 -16 -3 -14 callsubr
        return
      </CharString>
      <CharString index="107">
        1 1 9 hvcurveto
        return
      </CharString>
      <CharString index="108">
        -55 -65 26 55 -37 hvcurveto
        0 -37 -25 -8 -54 vhcurveto
        -42 46 75 -24 81 hhcurveto
        173 66 return
      </CharString>
      <CharString index="109">
        410 26 64 rrcurveto
        12 -19 -31 8 -31 hhcurveto
        -9 -10 -1 -2 -9 hvcurveto
        -6 -113 return
      </CharString>
      <CharString index="110">
        rmoveto
        -37 -20 -33 -53 -46 -11 28 30 37 13 35 60 46 11 -28 -32 vhcurveto
        endchar
      </CharString>
      <CharString index="111">
        45 callsubr
        93 29 callsubr
        return
      </CharString>
      <CharString index="112">
        32 rmoveto
        1 -21 6 -15 0 vvcurveto
        return
      </CharString>
      <CharString index="113">
        -20 hstemhm
        hintmask 10100000
        return
      </CharString>
      <CharString index="114">
        45 82 212 82 return
      </CharString>
      <CharString index="115">
        11 17 callsubr
        return
      </CharString>
      <CharString index="116">
        55 -55 callgsubr
        return
      </CharString>
      <CharString index="117">
        -80 callsubr
        endchar
      </CharString>
      <CharString index="118">
        -6 -7 -5 -7 -8 -15 -11 -22 -5 -12 -3 -17 77 -31 57 -29 78 -41 return
      </CharString>
      <CharString index="119">
        -329 44 -157 rrcurveto
        -3 callgsubr
        return
      </CharString>
      <CharString index="120">
        rrcurveto
        8 -13 -21 10 -23 hhcurveto
        -11 -13 0 36 callgsubr
        -9 -65 -10 -66 -11 return
      </CharString>
      <CharString index="121">
        -113 -118 -149 return
      </CharString>
      <CharString index="122">
        56 10 -21 308 67 return
      </CharString>
      <CharString index="123">
        204 -20 hstem
        return
      </CharString>
      <CharString index="124">
        -1 -28 hhcurveto
        -24 return
      </CharString>
      <CharString index="125">
        vhcurveto
        -74 callsubr
        16 -94 2 -36 return
      </CharString>
      <CharString index="126">
        181 -15 74 590 -20 return
      </CharString>
      <CharString index="127">
        -146 -7 callsubr
        return
      </CharString>
      <CharString index="128">
        12 96 vhcurveto
        -74 callsubr
        16 return
      </CharString>
      <CharString index="129">
        -3 rrcurveto
        7 16 4 -58 callgsubr
        -3 9 vhcurveto
        -18 -4 return
      </CharString>
      <CharString index="130">
        -14 callsubr
        -17 2 -9 3 -9 vhcurveto
        return
      </CharString>
      <CharString index="131">
        561 rmoveto
        7 17 4 13 26 vvcurveto
        17 -2 10 -3 9 vhcurveto
        return
      </CharString>
      <CharString index="132">
        rrcurveto
        -14 20 24 -5 22 hhcurveto
        8 8 0 callgsubr
        endchar
      </CharString>
      <CharString index="133">
        36 27 -33 35 hhcurveto
        endchar
      </CharString>
      <CharString index="134">
        5 callgsubr
        4 54 53 2 53 hhcurveto
        return
      </CharString>
      <CharString index="135">
        55 callsubr
        3 -11 3 -8 vhcurveto
        1 return
      </CharString>
      <CharString index="136">
        0 -41 -25 -9 -54 vhcurveto
        -48 51 return
      </CharString>
      <CharString index="137">
        49 218 -20 hstem
        return
      </CharString>
      <CharString index="138">
        0 66 callsubr
        return
      </CharString>
      <CharString index="139">
        58 callsubr
        27 9 8 16 hvcurveto
        return
      </CharString>
      <CharString index="140">
        rrcurveto
        5 16 2 13 24 vvcurveto
        17 -1 -26 callgsubr
        return
      </CharString>
      <CharString index="141">
        rmoveto
        56 -20 26 -55 -73 -16 -40 -44 -52 20 -30 55 return
      </CharString>
      <CharString index="142">
        rrcurveto
        -14 21 25 -5 22 hhcurveto
        7 6 0 callgsubr
        return
      </CharString>
      <CharString index="143">
        -1 -8 hvcurveto
        return
      </CharString>
      <CharString index="144">
        4 17 2 14 11 vvcurveto
        15 -3 9 -3 6 vhcurveto
        return
      </CharString>
      <CharString index="145">
        -119 -59 65 -56 -21 725 65 12 -20 hstemhm
        return
      </CharString>
      <CharString index="146">
        -3 -11 -1 -12 -12 vvcurveto
        46 callgsubr
        5 -10 vhcurveto
        return
      </CharString>
      <CharString index="147">
        -6 callsubr
        hstem
        55 82 272 92 vstem
        return
      </CharString>
      <CharString index="148">
        20 -11 51 -25 39 -22 -39 -22 -51 -26 -20 -10 return
      </CharString>
      <CharString index="149">
        -7 -26 -122 -7 -35 hhcurveto
        return
      </CharString>
      <CharString index="150">
        -216 rrcurveto
        -14 return
      </CharString>
      <CharString index="151">
        vvcurveto
        -44 -2 -61 -6 -52 vhcurveto
        -2 16 5 0 return
      </CharString>
      <CharString index="152">
        -33 63 callsubr
        return
      </CharString>
      <CharString index="153">
        -13 2 -12 return
      </CharString>
      <CharString index="154">
        -141 -62 -76 -96 -8 1 -9 2 -8 return
      </CharString>
      <CharString index="155">
        -134 -51 -21 723 -20 100 -20 hstem
        return
      </CharString>
      <CharString index="156">
        -9 -85 vhcurveto
        -4 16 16 -2 16 hhcurveto
        19 return
      </CharString>
      <CharString index="157">
        86 206 102 -85 85 return
      </CharString>
      <CharString index="158">
        17 -2 -26 callgsubr
        return
      </CharString>
      <CharString index="159">
        -7 callsubr
        hstem
        return
      </CharString>
      <CharString index="160">
        209 -20 hstem
        return
      </CharString>
      <CharString index="161">
        5 callsubr
        -10 return
      </CharString>
      <CharString index="162">
        -9 rrcurveto
        endchar
      </CharString>
      <CharString index="163">
        -200 -67 -21 817 -20 hstem
        return
      </CharString>
      <CharString index="164">
        rmoveto
        -1 9 14 -1 11 hhcurveto
        25 return
      </CharString>
      <CharString index="165">
        76 -15 callgsubr
        return
      </CharString>
      <CharString index="166">
        426 -25 -21 62 -21 87 53 return
      </CharString>
      <CharString index="167">
        hhcurveto
        -20 -25 -2 -6 -19 hvcurveto
        5 return
      </CharString>
      <CharString index="168">
        -210 46 69 41 return
      </CharString>
      <CharString index="169">
        20 -4 86 62 vvcurveto
        return
      </CharString>
      <CharString index="170">
        13 -21 659 -20 return
      </CharString>
      <CharString index="171">
        3 5 16 hvcurveto
        return
      </CharString>
      <CharString index="172">
        1 -8 hhcurveto
        return
      </CharString>
      <CharString index="173">
        181 rmoveto
        return
      </CharString>
      <CharString index="174">
        -12 rrcurveto
        endchar
      </CharString>
</ttFont>
